<svg xmlns="http://www.w3.org/2000/svg" viewBox="0 0 98.92 132.43"><defs><style>.cls-1,.cls-3{fill:none;stroke:#0c0c90;stroke-miterlimit:10;}.cls-2{fill:#d9d9e4;}.cls-3{stroke-linecap:round;}.cls-4{fill:#0c0c90;}</style></defs><title>Asset 10</title><g id="Layer_2" data-name="Layer 2"><g id="Layer_1-2" data-name="Layer 1"><path class="cls-1" d="M49.56.5h0A37.63,37.63,0,0,0,12,38s-.12,30.58,2.38,52.41l12.71-5.55"/><path class="cls-1" d="M49.56.5h0A37.63,37.63,0,0,1,87.08,38S87.2,68.6,84.7,90.43L72,84.88"/><path class="cls-1" d="M79.21,59.77l1-14.54c-5.12-5-14.67-6.12-14.67-6.12-.43-10-6-21.88-6-21.88,1.88,4,2.13,21.88,2.13,21.88H56L53.29,17.35c.46,5.88,0,21.75,0,21.75H43.08L41.25,16.6s-1.37,14.76-1.17,22.5H36.85S36.71,25.73,38,17.48A84.33,84.33,0,0,0,33.89,39.1s-10.19,1.33-15.19,7.17l1,13.5"/><path class="cls-1" d="M55.42,40.77A68.92,68.92,0,0,1,69.75,40"/><path class="cls-1" d="M43.7,40.77A68.92,68.92,0,0,0,29.38,40"/><circle class="cls-2" cx="49.46" cy="81.43" r="4.81"/><path class="cls-3" d="M49.56,77.45a6.23,6.23,0,0,1-3.14-.83"/><path class="cls-3" d="M49.56,77.45a6.23,6.23,0,0,0,3.14-.83"/><path class="cls-3" d="M41.25,80.1a35,35,0,0,1,4.77.67,12.25,12.25,0,0,0,3.54.66"/><path class="cls-3" d="M57.87,80.1a35,35,0,0,0-4.77.67,12.25,12.25,0,0,1-3.54.66"/><path class="cls-3" d="M53.72,85.68a15.34,15.34,0,0,1-4.16.67,15.34,15.34,0,0,1-4.16-.67"/><path class="cls-3" d="M43.7,67.93a4,4,0,0,1,4.25.5"/><path class="cls-3" d="M55.42,67.93a4,4,0,0,0-4.25.5"/><path class="cls-3" d="M26.07,48.84a11.13,11.13,0,0,1,7.67-2.73,12.57,12.57,0,0,1,8,2.73"/><path class="cls-4" d="M36.23,46.47a2.93,2.93,0,0,1,.62,1.8h0a3,3,0,0,1-3,3h0a3,3,0,0,1-3-3h0a2.93,2.93,0,0,1,.63-1.82"/><path class="cls-3" d="M57.38,48.84a11.13,11.13,0,0,1,7.67-2.73,12.57,12.57,0,0,1,8,2.73"/><path class="cls-4" d="M67.54,46.47a2.93,2.93,0,0,1,.62,1.8h0a3,3,0,0,1-3,3h0a3,3,0,0,1-3-3h0a2.93,2.93,0,0,1,.63-1.82"/><path class="cls-2" d="M60.55,93.67a11.41,11.41,0,0,1,.29,2.55c0,6.28-5.09,7.37-11.37,7.37s-11.37-1.09-11.37-7.37a11.41,11.41,0,0,1,.31-2.64h0A26.15,26.15,0,0,0,49.46,96h0a26.16,26.16,0,0,0,10.67-2.24Z"/><path class="cls-1" d="M49.46,96h0c13.29,0,23.87-9.65,27.46-23.06a113.14,113.14,0,0,0,2.29-13.17"/><path class="cls-1" d="M49.46,96h0C36.17,96,25.58,86.34,22,72.93a113.14,113.14,0,0,1-2.29-13.17"/><line class="cls-1" x1="38.08" y1="93.6" x2="38.08" y2="101.6"/><line class="cls-1" x1="60.83" y1="93.6" x2="60.83" y2="101.6"/><path class="cls-1" d="M60.83,101.6a11.38,11.38,0,0,1-22.75,0"/><path class="cls-1" d="M.5,132.43v-6.89a29.09,29.09,0,0,1,29-29h8.58"/><path class="cls-1" d="M60.83,96.54h8.58a29.09,29.09,0,0,1,29,29v6.89"/></g></g></svg>