<svg xmlns="http://www.w3.org/2000/svg" viewBox="0 0 528.07 198.35"><defs><style>.cls-1{fill:#d9d9e4;}</style></defs><title>Asset 4</title><g id="Layer_2" data-name="Layer 2"><g id="Layer_1-2" data-name="Layer 1"><path class="cls-1" d="M0,198.35H528.07V0c-9.29,0-13.88,5.26-19.19,11.35-5.73,6.57-12.23,14-25.07,14s-19.34-7.45-25.07-14C453.44,5.26,448.85,0,439.56,0s-13.87,5.26-19.19,11.35c-5.73,6.57-12.23,14-25.07,14v-.05c-11.85-.56-18.07-7.66-23.57-14C366.43,5.26,361.84,0,352.55,0s-13.88,5.26-19.19,11.35c-5.73,6.57-12.23,14-25.07,14s-19.34-7.45-25.07-14C277.91,5.26,273.33,0,264,0s-13.88,5.26-19.19,11.35c-5.73,6.57-12.23,14-25.07,14v-.05c-11.85-.56-18.07-7.66-23.57-14C190.9,5.26,186.31,0,177,0s-13.88,5.26-19.19,11.35c-5.73,6.57-12.23,14-25.07,14s-19.34-7.45-25.07-14C102.39,5.26,97.8,0,88.51,0S74.63,5.26,69.32,11.35c-5.73,6.57-12.23,14-25.07,14s-19.34-7.45-25.07-14C13.88,5.26,9.29,0,0,0Z"/></g></g></svg>