<svg xmlns="http://www.w3.org/2000/svg" viewBox="0 0 195 432.15"><defs><style>.cls-1{fill:#0c0c90;}</style></defs><title>Asset 6</title><g id="Layer_2" data-name="Layer 2"><g id="Layer_1-2" data-name="Layer 1"><polygon class="cls-1" points="156 43.3 117 0 117 86.6 156 43.3"/><polygon class="cls-1" points="156 129.9 117 86.6 117 173.21 156 129.9"/><polygon class="cls-1" points="156 216.51 117 173.21 117 259.81 156 216.51"/><polygon class="cls-1" points="117 43.3 78 0 78 86.6 117 43.3"/><polygon class="cls-1" points="117 129.9 78 86.6 78 173.21 117 129.9"/><polygon class="cls-1" points="78 43.3 39 0 39 86.6 78 43.3"/><polygon class="cls-1" points="39 43.3 0 0 0 86.6 39 43.3"/><polygon class="cls-1" points="78 129.9 39 86.6 39 173.21 78 129.9"/><polygon class="cls-1" points="117 216.51 78 173.21 78 259.81 117 216.51"/><polygon class="cls-1" points="156 302.25 117 258.95 117 345.55 156 302.25"/><polygon class="cls-1" points="195 43.3 156 0 156 86.6 195 43.3"/><polygon class="cls-1" points="195 129.9 156 86.6 156 173.21 195 129.9"/><polygon class="cls-1" points="195 216.51 156 173.21 156 259.81 195 216.51"/><polygon class="cls-1" points="195 302.25 156 258.95 156 345.55 195 302.25"/><polygon class="cls-1" points="195 388.85 156 345.55 156 432.15 195 388.85"/></g></g></svg>