<svg xmlns="http://www.w3.org/2000/svg" viewBox="0 0 414.02 38.25"><defs><style>.cls-1{fill:none;stroke:#0c0c90;stroke-miterlimit:10;stroke-width:5px;}</style></defs><title>Asset 9</title><g id="Layer_2" data-name="Layer 2"><g id="Layer_1-2" data-name="Layer 1"><path class="cls-1" d="M412.1,19.13,400.33,33.26a6.92,6.92,0,0,1-10.64,0L377.92,19.13,366.15,5A6.92,6.92,0,0,0,355.5,5L343.73,19.13,332,33.26a6.92,6.92,0,0,1-10.64,0L309.55,19.13,297.78,5a6.92,6.92,0,0,0-10.64,0L275.37,19.13,263.6,33.26a6.92,6.92,0,0,1-10.64,0L241.19,19.13,229.42,5a6.92,6.92,0,0,0-10.64,0L207,19.13,195.24,33.26a6.92,6.92,0,0,1-10.64,0L172.83,19.13,161.06,5a6.92,6.92,0,0,0-10.64,0L138.65,19.13,126.88,33.26a6.92,6.92,0,0,1-10.64,0L104.46,19.13,92.7,5A6.92,6.92,0,0,0,82.05,5L70.28,19.13,58.51,33.26a6.92,6.92,0,0,1-10.64,0L36.1,19.13,24.33,5A6.92,6.92,0,0,0,13.69,5L1.92,19.13"/></g></g></svg>