<svg xmlns="http://www.w3.org/2000/svg" viewBox="0 0 106.45 16.23"><defs><style>.cls-1{fill:none;stroke:#0c0c90;stroke-miterlimit:10;stroke-width:5px;}</style></defs><title>Asset 25</title><g id="Layer_2" data-name="Layer 2"><g id="Layer_1-2" data-name="Layer 1"><path class="cls-1" d="M104.76,7.21l-5,4.58a2.11,2.11,0,0,1-2.8,0l-5-4.4v0l-5-4.4a2.11,2.11,0,0,0-2.8,0L79,7.64v0l-5,4.58a2.11,2.11,0,0,1-2.8,0l-5-4.4v0l-5-4.4a2.11,2.11,0,0,0-2.8,0l-5,4.58v0l-5,4.58a2.11,2.11,0,0,1-2.8,0l-5-4.4v0l-5-4.4a2.11,2.11,0,0,0-2.8,0l-5,4.58v0l-5,4.58a2.11,2.11,0,0,1-2.8,0l-5-4.4v0l-5-4.4a2.11,2.11,0,0,0-2.8,0L1.68,9"/></g></g></svg>