<svg xmlns="http://www.w3.org/2000/svg" viewBox="0 0 147.13 12.21"><defs><style>.cls-1{fill:none;stroke:#0c0c90;stroke-miterlimit:10;stroke-width:3px;}</style></defs><title>Asset 26</title><g id="Layer_2" data-name="Layer 2"><g id="Layer_1-2" data-name="Layer 1"><path class="cls-1" d="M1,7.4,4.56,4.17a1.48,1.48,0,0,1,2,0l3.55,3.1v0l3.55,3.1a1.48,1.48,0,0,0,2,0l3.55-3.23v0L22.7,3.85a1.48,1.48,0,0,1,2,0l3.55,3.1v0L31.77,10a1.48,1.48,0,0,0,2,0l3.55-3.23v0l3.55-3.23a1.48,1.48,0,0,1,2,0l3.55,3.1v0l3.55,3.1a1.48,1.48,0,0,0,2,0l3.55-3.23v0L59,3.2a1.48,1.48,0,0,1,2,0l3.55,3.1v0L68,9.39a1.48,1.48,0,0,0,2,0l3.55-3.23v0l3.55-3.23a1.48,1.48,0,0,1,2,0l3.55,3.1v0L86.18,9a1.48,1.48,0,0,0,2,0L91.7,5.78v0l3.55-3.23a1.48,1.48,0,0,1,2,0l3.55,3.1v0l3.55,3.1a1.48,1.48,0,0,0,2,0l3.55-3.23v0l3.55-3.23a1.48,1.48,0,0,1,2,0l3.55,3.1v0l3.55,3.1a1.48,1.48,0,0,0,2,0L128,5.14v0l3.55-3.23a1.48,1.48,0,0,1,2,0L137.05,5V5l3.55,3.1a1.48,1.48,0,0,0,2,0l3.55-3.23"/></g></g></svg>