<svg xmlns="http://www.w3.org/2000/svg" xmlns:xlink="http://www.w3.org/1999/xlink" viewBox="0 0 414.96 345.14"><defs><style>.cls-1{isolation:isolate;}.cls-2{fill:#f8f8f8;}.cls-3{fill:#0000cb;}.cls-3,.cls-4,.cls-5{opacity:0.35;}.cls-33,.cls-4{fill:none;stroke:#0000cb;stroke-miterlimit:10;stroke-width:4px;}.cls-5{fill:#f8f8ff;}.cls-6{fill:#f7f7da;}.cls-7{fill:#209cd3;}.cls-8{fill:#64647a;}.cls-9{fill:#86bc1e;}.cls-10{fill:#3f444c;}.cls-11{fill:#fff;}.cls-12{fill:url(#New_Gradient_Swatch_8);}.cls-13{fill:#ffbf4f;}.cls-14{fill:#e6ee32;}.cls-15{fill:#0fa353;}.cls-16{fill:#36b9f0;}.cls-17{fill:#3a489f;}.cls-18{fill:#ad2e72;}.cls-19{fill:#fd398a;}.cls-20{fill:#d1c4aa;}.cls-21{fill:#ffed26;}.cls-22{fill:#ffffc2;}.cls-23{fill:#fcae47;}.cls-24{fill:#62626b;}.cls-25{fill:#ea9939;}.cls-26{fill:#4d515e;}.cls-27{opacity:0.52;}.cls-28{fill:#b5aabf;}.cls-29{fill:#ccd835;}.cls-30{fill:#545766;}.cls-31{opacity:0.5;mix-blend-mode:overlay;}.cls-32{fill:#282830;}.cls-34{fill:#56565b;}.cls-35{fill:#777f85;}.cls-36{fill:#4a4a4c;}.cls-37{fill:#b6b8bf;}</style><linearGradient id="New_Gradient_Swatch_8" x1="148.44" y1="125.6" x2="155.64" y2="125.6" gradientUnits="userSpaceOnUse"><stop offset="0" stop-color="#fa4b0f"/><stop offset="1" stop-color="#fa3b0f"/></linearGradient></defs><title>Asset 17</title><g class="cls-1"><g id="Layer_2" data-name="Layer 2"><g id="Layer_1-2" data-name="Layer 1"><rect class="cls-2" width="414.96" height="344"/><path class="cls-3" d="M85.82,344l12.45-36.53-2.21-.71h0l6.29-18.69-8.75-2.81-7.27-2.33h0l3.76-12,.12,0a33.77,33.77,0,0,0,12.3-8.9h0a13,13,0,0,0,2.46,3.45,12.86,12.86,0,0,0,9.14,3.82l210.1.46h0a12.86,12.86,0,0,0,9.13-3.78c.14-.14.27-.3.4-.44a17.76,17.76,0,0,0,8.32,2.76l1.84,7.24-2.89.73-9.64,2.45,4.78,20.81-3.43.87L342.87,344h68.31l-15-59.62-2.35.6L389,264.16l-13.89,3.52-12.66-54c-1.67-4.21-2.77-6.21-3.77-7a64.49,64.49,0,0,0-21.35-24l.15-65.94a13,13,0,0,0-12.92-13l-210.1-.46h0a13,13,0,0,0-13,12.92l-.18,77.55-2.63,1.15c-8.19,3.53-15.93,6.87-24,22.2l-1.57,2.65-15.37,54L50,271.31,44,290.1h0l-1.71-.55L23.87,344Z"/><path class="cls-4" d="M134.22,59.71H274.41a11.78,11.78,0,0,1,11.78,11.78V281.6a11.79,11.79,0,0,1-11.79,11.79H134.21a11.78,11.78,0,0,1-11.78-11.78V71.5a11.79,11.79,0,0,1,11.79-11.79Z" transform="translate(27.32 380.47) rotate(-89.88)"/><path class="cls-3" d="M134.22,59.71H274.41a11.78,11.78,0,0,1,11.78,11.78V281.6a11.79,11.79,0,0,1-11.79,11.79H134.21a11.78,11.78,0,0,1-11.78-11.78V71.5a11.79,11.79,0,0,1,11.79-11.79Z" transform="translate(27.32 380.47) rotate(-89.88)"/><path class="cls-5" d="M266.76,98.62,126.64,253.76a.31.31,0,0,1-.23.51l-24.36,0c-6.81,0-10.31-3.52-10.31-10.28L92,109.64c0-6.84,4.06-11.08,11-11.09l163.69-.07A.09.09,0,0,1,266.76,98.62Z"/><path class="cls-6" d="M303.62,111.45l-.3,128.67a1.18,1.18,0,0,1-1.18,1.18l-165.24.06H114.55a1.17,1.17,0,0,1-1.18-1.17l-.09-128.67a1.18,1.18,0,0,1,1.18-1.18l141.95,0,45.64,0C302.71,110.26,303.63,110.8,303.62,111.45Z"/><rect class="cls-7" x="125.22" y="208.19" width="50.38" height="5.65"/><rect class="cls-8" x="125.22" y="219.79" width="42.65" height="4.42"/><rect class="cls-8" x="125.22" y="228.98" width="42.65" height="4.42"/><rect class="cls-9" x="125.22" y="129.61" width="35.52" height="59.17"/><rect class="cls-9" x="170.91" y="129.61" width="122.06" height="59.17"/><rect class="cls-10" x="137.52" y="119.87" width="46.44" height="37.24" rx="2.22" ry="2.22"/><rect class="cls-11" x="139.64" y="121.82" width="7.2" height="7.55" rx="1.49" ry="1.49"/><path class="cls-10" d="M145.35,130.23h-4.22a2.34,2.34,0,0,1-2.34-2.34v-4.58a2.34,2.34,0,0,1,2.34-2.34h4.22a2.34,2.34,0,0,1,2.34,2.34v4.58A2.34,2.34,0,0,1,145.35,130.23Zm-4.22-7.55a.64.64,0,0,0-.64.64v4.58a.64.64,0,0,0,.64.64h4.22a.64.64,0,0,0,.64-.64v-4.58a.64.64,0,0,0-.64-.64Z"/><rect class="cls-12" x="148.44" y="121.82" width="7.2" height="7.55" rx="1.49" ry="1.49"/><path class="cls-10" d="M154.15,130.23h-4.22a2.34,2.34,0,0,1-2.34-2.34v-4.58a2.34,2.34,0,0,1,2.34-2.34h4.22a2.34,2.34,0,0,1,2.34,2.34v4.58A2.34,2.34,0,0,1,154.15,130.23Zm-4.22-7.55a.64.64,0,0,0-.64.64v4.58a.64.64,0,0,0,.64.64h4.22a.64.64,0,0,0,.64-.64v-4.58a.64.64,0,0,0-.64-.64Z"/><rect class="cls-13" x="157.25" y="121.82" width="7.2" height="7.55" rx="1.49" ry="1.49"/><path class="cls-10" d="M163,130.23h-4.22a2.34,2.34,0,0,1-2.34-2.34v-4.58a2.34,2.34,0,0,1,2.34-2.34H163a2.34,2.34,0,0,1,2.34,2.34v4.58A2.34,2.34,0,0,1,163,130.23Zm-4.22-7.55a.64.64,0,0,0-.64.64v4.58a.64.64,0,0,0,.64.64H163a.64.64,0,0,0,.64-.64v-4.58a.64.64,0,0,0-.64-.64Z"/><rect class="cls-14" x="166.05" y="121.82" width="7.2" height="7.55" rx="1.49" ry="1.49"/><path class="cls-10" d="M171.76,130.23h-4.22a2.34,2.34,0,0,1-2.34-2.34v-4.58a2.34,2.34,0,0,1,2.34-2.34h4.22a2.34,2.34,0,0,1,2.34,2.34v4.58A2.34,2.34,0,0,1,171.76,130.23Zm-4.22-7.55a.64.64,0,0,0-.64.64v4.58a.64.64,0,0,0,.64.64h4.22a.64.64,0,0,0,.64-.64v-4.58a.64.64,0,0,0-.64-.64Z"/><rect class="cls-15" x="174.85" y="121.82" width="7.2" height="7.55" rx="1.49" ry="1.49"/><path class="cls-10" d="M180.57,130.23h-4.22a2.34,2.34,0,0,1-2.34-2.34v-4.58a2.34,2.34,0,0,1,2.34-2.34h4.22a2.34,2.34,0,0,1,2.34,2.34v4.58A2.34,2.34,0,0,1,180.57,130.23Zm-4.22-7.55a.64.64,0,0,0-.64.64v4.58a.64.64,0,0,0,.64.64h4.22a.64.64,0,0,0,.64-.64v-4.58a.64.64,0,0,0-.64-.64Z"/><rect class="cls-16" x="139.64" y="131.07" width="7.2" height="7.55" rx="1.49" ry="1.49"/><path class="cls-10" d="M145.35,139.47h-4.22a2.34,2.34,0,0,1-2.34-2.34v-4.58a2.34,2.34,0,0,1,2.34-2.34h4.22a2.34,2.34,0,0,1,2.34,2.34v4.58A2.34,2.34,0,0,1,145.35,139.47Zm-4.22-7.55a.64.64,0,0,0-.64.64v4.58a.64.64,0,0,0,.64.64h4.22a.64.64,0,0,0,.64-.64v-4.58a.64.64,0,0,0-.64-.64Z"/><rect class="cls-17" x="148.44" y="131.07" width="7.2" height="7.55" rx="1.49" ry="1.49"/><path class="cls-10" d="M154.15,139.47h-4.22a2.34,2.34,0,0,1-2.34-2.34v-4.58a2.34,2.34,0,0,1,2.34-2.34h4.22a2.34,2.34,0,0,1,2.34,2.34v4.58A2.34,2.34,0,0,1,154.15,139.47Zm-4.22-7.55a.64.64,0,0,0-.64.64v4.58a.64.64,0,0,0,.64.64h4.22a.64.64,0,0,0,.64-.64v-4.58a.64.64,0,0,0-.64-.64Z"/><rect class="cls-18" x="157.25" y="131.07" width="7.2" height="7.55" rx="1.49" ry="1.49"/><path class="cls-10" d="M163,139.47h-4.22a2.34,2.34,0,0,1-2.34-2.34v-4.58a2.34,2.34,0,0,1,2.34-2.34H163a2.34,2.34,0,0,1,2.34,2.34v4.58A2.34,2.34,0,0,1,163,139.47Zm-4.22-7.55a.64.64,0,0,0-.64.64v4.58a.64.64,0,0,0,.64.64H163a.64.64,0,0,0,.64-.64v-4.58a.64.64,0,0,0-.64-.64Z"/><rect class="cls-19" x="166.05" y="131.07" width="7.2" height="7.55" rx="1.49" ry="1.49"/><path class="cls-10" d="M171.76,139.47h-4.22a2.34,2.34,0,0,1-2.34-2.34v-4.58a2.34,2.34,0,0,1,2.34-2.34h4.22a2.34,2.34,0,0,1,2.34,2.34v4.58A2.34,2.34,0,0,1,171.76,139.47Zm-4.22-7.55a.64.64,0,0,0-.64.64v4.58a.64.64,0,0,0,.64.64h4.22a.64.64,0,0,0,.64-.64v-4.58a.64.64,0,0,0-.64-.64Z"/><rect class="cls-20" x="174.85" y="131.07" width="7.2" height="7.55" rx="1.49" ry="1.49"/><path class="cls-10" d="M180.57,139.47h-4.22a2.34,2.34,0,0,1-2.34-2.34v-4.58a2.34,2.34,0,0,1,2.34-2.34h4.22a2.34,2.34,0,0,1,2.34,2.34v4.58A2.34,2.34,0,0,1,180.57,139.47Zm-4.22-7.55a.64.64,0,0,0-.64.64v4.58a.64.64,0,0,0,.64.64h4.22a.64.64,0,0,0,.64-.64v-4.58a.64.64,0,0,0-.64-.64Z"/><rect class="cls-21" x="139.64" y="140.2" width="7.2" height="7.55" rx="1.49" ry="1.49"/><path class="cls-10" d="M145.35,148.6h-4.22a2.34,2.34,0,0,1-2.34-2.34v-4.58a2.34,2.34,0,0,1,2.34-2.34h4.22a2.34,2.34,0,0,1,2.34,2.34v4.58A2.34,2.34,0,0,1,145.35,148.6Zm-4.22-7.55a.64.64,0,0,0-.64.64v4.58a.64.64,0,0,0,.64.64h4.22a.64.64,0,0,0,.64-.64v-4.58a.64.64,0,0,0-.64-.64Z"/><rect class="cls-22" x="148.44" y="140.2" width="7.2" height="7.55" rx="1.49" ry="1.49"/><path class="cls-10" d="M154.15,148.6h-4.22a2.34,2.34,0,0,1-2.34-2.34v-4.58a2.34,2.34,0,0,1,2.34-2.34h4.22a2.34,2.34,0,0,1,2.34,2.34v4.58A2.34,2.34,0,0,1,154.15,148.6Zm-4.22-7.55a.64.64,0,0,0-.64.64v4.58a.64.64,0,0,0,.64.64h4.22a.64.64,0,0,0,.64-.64v-4.58a.64.64,0,0,0-.64-.64Z"/><rect class="cls-23" x="202.07" y="149.3" width="54.47" height="46.07"/><path class="cls-24" d="M250.63,147.68H200.45V197h57.71V147.68Zm4.29,46.08H203.69V150.92h51.23Z"/><rect class="cls-11" x="199.37" y="189.44" width="8.63" height="8.63" transform="translate(407.37 387.52) rotate(180)"/><path class="cls-24" d="M209.62,199.69H197.75V187.82h11.87ZM201,196.46h5.4v-5.4H201Z"/><rect class="cls-11" x="250.63" y="189.44" width="8.63" height="8.63" transform="translate(509.89 387.52) rotate(180)"/><path class="cls-24" d="M260.88,199.69H249V187.82h11.87Zm-8.63-3.24h5.4v-5.4h-5.4Z"/><rect class="cls-11" x="199.37" y="145.74" width="8.63" height="8.63" transform="translate(407.37 300.11) rotate(180)"/><path class="cls-24" d="M209.62,156H197.75V144.12h11.87ZM201,152.75h5.4v-5.4H201Z"/><rect class="cls-11" x="250.63" y="145.74" width="8.63" height="8.63" transform="translate(509.89 300.11) rotate(180)"/><path class="cls-24" d="M260.88,156H249V144.12h11.87Zm-8.63-3.24h5.4v-5.4h-5.4Z"/><rect class="cls-11" x="225.02" y="167.96" width="8.63" height="8.63" transform="translate(458.67 344.56) rotate(180)"/><path class="cls-25" d="M235.27,178.21H223.4V166.34h11.87ZM226.64,175H232v-5.4h-5.4Z"/><rect class="cls-26" x="119.31" y="115.54" width="11.83" height="82.3" rx="1.71" ry="1.71"/><g class="cls-27"><rect class="cls-28" x="122.1" y="167.46" width="5.97" height="6.26" rx="1.71" ry="1.71"/><rect class="cls-28" x="122.1" y="157.72" width="5.97" height="6.26" rx="1.71" ry="1.71"/><rect class="cls-28" x="122.1" y="147.98" width="5.97" height="6.26" rx="1.71" ry="1.71"/><rect class="cls-28" x="122.1" y="138.24" width="5.97" height="6.26" rx="1.71" ry="1.71"/><rect class="cls-28" x="122.1" y="128.5" width="5.97" height="6.26" rx="1.71" ry="1.71"/><rect class="cls-28" x="122.1" y="118.76" width="5.97" height="6.26" rx="1.71" ry="1.71"/></g><rect class="cls-29" x="123.69" y="185.91" width="5.97" height="6.26" rx="1.71" ry="1.71"/><rect class="cls-23" x="121.18" y="183.96" width="5.97" height="6.26" rx="1.71" ry="1.71"/><path class="cls-30" d="M125.44,191.2h-2.56a2.68,2.68,0,0,1-2.68-2.68v-2.85a2.68,2.68,0,0,1,2.68-2.68h2.56a2.68,2.68,0,0,1,2.68,2.68v2.85A2.68,2.68,0,0,1,125.44,191.2Zm-2.56-6.26a.73.73,0,0,0-.73.73v2.85a.73.73,0,0,0,.73.73h2.56a.73.73,0,0,0,.73-.73v-2.85a.73.73,0,0,0-.73-.73Z"/><g class="cls-31"><path class="cls-11" d="M256.42,110.3,136.9,242.2H114.55a1.17,1.17,0,0,1-1.18-1.17l-.09-129.52a1.18,1.18,0,0,1,1.18-1.18Z"/></g><path class="cls-32" d="M101.59,189.76a1.94,1.94,0,0,1-1.94-1.93l-.13-26.63a1.94,1.94,0,0,1,1.93-1.95h0a1.94,1.94,0,0,1,1.94,1.93l.13,26.63a1.94,1.94,0,0,1-1.93,1.95Z"/><rect class="cls-7" x="184.56" y="208.19" width="50.38" height="5.65"/><rect class="cls-8" x="184.56" y="219.79" width="42.65" height="4.42"/><rect class="cls-8" x="184.56" y="228.97" width="42.65" height="4.42"/><rect class="cls-7" x="243.9" y="208.19" width="63.1" height="5.65"/><rect class="cls-8" x="243.9" y="219.79" width="55.37" height="4.42"/><rect class="cls-8" x="243.9" y="228.97" width="55.37" height="4.42"/><path class="cls-2" d="M131.63,208a8.27,8.27,0,0,0-10.82-4.42L85.58,218.46l.21-34.79c-1,.43-1.55.83-2.45,1.22-8.19,3.53-15.93,6.87-24,22.2l-1.57,2.65L42.44,263.69,35,261.31,29,280.1h0l-1.71-.55-22,64.94H67.24l16-47-2.21-.71h0l6.29-18.69-8.75-2.81-7.27-2.33h0l-.33-.1L74.74,261l.12,0c5-1.93,10.27-6,14.63-11.7a36.15,36.15,0,0,0,7.4-16.57l.12-1.26,30.21-12.68A8.27,8.27,0,0,0,131.63,208Z"/><path class="cls-2" d="M328.93,265.6l-1.84-7.24c-10.41-.43-20.74-13.24-28.31-24.66a49.23,49.23,0,0,1-3.44-6l-23.45-20.46c-3.81-3.15-6.12-7.69-4.65-9.55,3.08-3.87,11.43-3.86,14.46-1.39l16.35,11.22,3.12,2.14c7.56,3.79,23.39-.51,22.86-10.76a10.85,10.85,0,0,0-.33-2.13c-6.37-8.23-14-12.42-25.37-18.6l-.82-.45-10.42,8.69L280,191.1c-7.12,4.71-11.35-4.71-11.35-4.71a8.48,8.48,0,0,1,2.7-8.92L291.11,161a8.48,8.48,0,0,1,9.56-.89c2,1.11,3.93,2.17,5.8,3.19,15.15,8.27,27.37,14.95,37.25,33.43,1,.78,2.1,2.78,3.77,7l12.66,54,1.39-.35,12.5-3.17L378.81,275l2.35-.6,17.65,70.11H330.31l-12.57-54,3.43-.87-4.78-20.81,9.64-2.45Z"/><polyline class="cls-33" points="81.02 296.76 87.31 278.07 78.56 275.26 34.98 261.31 28.97 280.1"/><path class="cls-33" d="M42.73,263.79l15.37-54,1.57-2.65c8.07-15.33,15.81-18.67,24-22.2l2.13-.93"/><path class="cls-33" d="M84.72,218.82l36.41-15.28a8.27,8.27,0,1,1,6.4,15.25L97.32,231.46l-.12,1.26a36.15,36.15,0,0,1-7.4,16.57c-4.35,5.69-9.66,9.76-14.63,11.7l-.12,0-3.76,12"/><path class="cls-33" d="M360.1,257.68l-12.66-54c-1.67-4.21-2.77-6.21-3.77-7-9.88-18.48-22.1-25.16-37.25-33.43-1.87-1-3.8-2.07-5.8-3.19a8.48,8.48,0,0,0-9.56.89l-19.78,16.49a8.48,8.48,0,0,0-2.7,8.92"/><path class="cls-33" d="M287.06,186.39l10.42-8.69.82.45c11.32,6.18,19,10.37,25.37,18.6a10.85,10.85,0,0,1,.33,2.13"/><polygon class="cls-34" points="353.52 198.29 263.95 198.36 263.95 198.29 263.95 192.67 263.97 185.56 263.97 185.45 340.16 185.5 353.55 185.39 353.52 198.29"/><path class="cls-34" d="M350,198.34a6.49,6.49,0,0,1,0-13h3.58l0,13Z"/><path class="cls-35" d="M353.53,198.34a6.49,6.49,0,0,1,0-13h2.85l0,13Z"/><path class="cls-36" d="M263.95,198.29a5.53,5.53,0,0,1-1.13.11c-3.39,0-10.15-6.49-10.15-6.49l.06-.07c.71-.66,6.92-6.4,10.11-6.39a6.13,6.13,0,0,1,1.13.11,6.34,6.34,0,0,1,5,5.74,5,5,0,0,1,0,.64A6.39,6.39,0,0,1,263.95,198.29Z"/><ellipse class="cls-34" cx="264.1" cy="191.93" rx="6.48" ry="6.14" transform="translate(71.73 455.71) rotate(-89.9)"/><ellipse class="cls-37" cx="356.39" cy="191.87" rx="6.48" ry="6.14" transform="translate(163.93 547.94) rotate(-89.9)"/><rect class="cls-35" x="315.75" y="188.18" width="32.64" height="4.65" rx="1.66" ry="1.66"/><path class="cls-37" d="M347.51,192.83h0a1.18,1.18,0,0,1-1.17-1.17v-2.3a1.18,1.18,0,0,1,1.17-1.17h0a1.18,1.18,0,0,1,1.17,1.17v2.3A1.18,1.18,0,0,1,347.51,192.83Z"/><polyline class="cls-33" points="378.78 274.98 374 254.16 325.99 266.33 316.36 268.78 321.13 289.59"/><polyline class="cls-33" points="398.78 344.49 381.13 274.38 378.77 274.98 378.45 275.06 364.98 278.47 354.88 281.03 335.63 285.91 334.14 286.29 330.77 287.15 321.13 289.59 317.7 290.46 330.27 344.49"/><polyline class="cls-33" points="67.2 344.49 83.23 297.47 81.02 296.76 72.27 293.96 68.56 292.77 65.38 291.76 64.29 291.41 30.48 280.58 28.97 280.1 27.26 279.55 5.28 344.49"/><path class="cls-33" d="M324,198.88c.53,10.25-15.3,14.56-22.86,10.76L298,207.5l-16.35-11.22c-3-2.47-11.39-2.48-14.46,1.39-1.47,1.85.84,6.4,4.65,9.55l23.45,20.46a49.23,49.23,0,0,0,3.44,6c7.57,11.42,17.9,24.23,28.31,24.66l1.84,7.24"/></g></g></g></svg>