<svg xmlns="http://www.w3.org/2000/svg" viewBox="0 0 414.96 344"><defs><style>.cls-1{fill:#f8f8f8;}.cls-2,.cls-3,.cls-6,.cls-7,.cls-8{fill:#0000cb;}.cls-2{opacity:0.7;}.cls-3{opacity:0.35;}.cls-4,.cls-5{fill:none;stroke:#0000cb;stroke-miterlimit:10;}.cls-4{stroke-width:3px;}.cls-5{stroke-width:2px;}.cls-6{opacity:0.6;}.cls-7{opacity:0.5;}.cls-8{opacity:0.3;}</style></defs><title>Asset 18</title><g id="Layer_2" data-name="Layer 2"><g id="Layer_1-2" data-name="Layer 1"><rect class="cls-1" width="414.96" height="344"/><path class="cls-2" d="M346.18,197.51v-153a12,12,0,0,0-12-12h-246a12,12,0,0,0-12,12v165h270Z"/><rect class="cls-1" x="96.61" y="47.2" width="229.14" height="147.61"/><path class="cls-3" d="M249.4,120.34,202.9,93.49a9.5,9.5,0,0,0-14.25,8.23v53.69a9.5,9.5,0,0,0,14.25,8.23l46.5-26.85A9.5,9.5,0,0,0,249.4,120.34Z"/><path class="cls-4" d="M242.27,112.27l-46.5-26.85a9.5,9.5,0,0,0-14.25,8.23v53.69a9.5,9.5,0,0,0,14.25,8.23l46.5-26.85A9.5,9.5,0,0,0,242.27,112.27Z"/><line class="cls-5" x1="96.61" y1="68.14" x2="325.75" y2="68.14"/><line class="cls-5" x1="96.61" y1="174.46" x2="325.75" y2="174.46"/><path class="cls-5" d="M96.61,51.51H109.9a3.24,3.24,0,0,1,3.23,3.23v5.55a3.24,3.24,0,0,1-3.23,3.23H96.61"/><rect class="cls-5" x="137.38" y="51.51" width="33.04" height="12" rx="3.23" ry="3.23"/><rect class="cls-5" x="194.67" y="51.51" width="33.04" height="12" rx="3.23" ry="3.23"/><rect class="cls-5" x="251.95" y="51.51" width="33.04" height="12" rx="3.23" ry="3.23"/><path class="cls-5" d="M325.75,63.51H312.46a3.24,3.24,0,0,1-3.23-3.23V54.74a3.24,3.24,0,0,1,3.23-3.23h13.29"/><path class="cls-5" d="M96.61,179.14H109.9a3.24,3.24,0,0,1,3.23,3.23v5.55a3.24,3.24,0,0,1-3.23,3.23H96.61"/><rect class="cls-5" x="137.38" y="179.14" width="33.04" height="12" rx="3.23" ry="3.23"/><rect class="cls-5" x="194.67" y="179.14" width="33.04" height="12" rx="3.23" ry="3.23"/><rect class="cls-5" x="251.95" y="179.14" width="33.04" height="12" rx="3.23" ry="3.23"/><path class="cls-5" d="M325.75,191.14H312.46a3.24,3.24,0,0,1-3.23-3.23v-5.55a3.24,3.24,0,0,1,3.23-3.23h13.29"/><rect class="cls-2" x="76.18" y="209.51" width="27" height="27"/><rect class="cls-6" x="76.18" y="236.51" width="27" height="27"/><rect class="cls-7" x="76.18" y="263.51" width="27" height="27"/><rect class="cls-2" x="103.18" y="209.51" width="27" height="27"/><rect class="cls-7" x="103.18" y="263.51" width="27" height="27"/><rect class="cls-8" x="103.18" y="290.51" width="27" height="27"/><rect class="cls-2" x="130.18" y="209.51" width="27" height="27"/><rect class="cls-6" x="130.18" y="236.51" width="27" height="27"/><rect class="cls-2" x="157.18" y="209.51" width="27" height="27"/><rect class="cls-7" x="157.18" y="263.51" width="27" height="27"/><rect class="cls-2" x="184.18" y="209.51" width="27" height="27"/><rect class="cls-6" x="184.18" y="236.51" width="27" height="27"/><rect class="cls-2" x="211.18" y="209.51" width="27" height="27"/><rect class="cls-6" x="211.18" y="236.51" width="27" height="27"/><rect class="cls-8" x="211.18" y="290.51" width="27" height="27"/><rect class="cls-2" x="238.18" y="209.51" width="27" height="27"/><rect class="cls-7" x="238.18" y="263.51" width="27" height="27"/><rect class="cls-2" x="265.18" y="209.51" width="27" height="27"/><rect class="cls-6" x="265.18" y="236.51" width="27" height="27"/><rect class="cls-8" x="265.18" y="290.51" width="27" height="27"/><rect class="cls-2" x="292.18" y="209.51" width="27" height="27"/><rect class="cls-7" x="292.18" y="263.51" width="27" height="27"/><rect class="cls-2" x="319.18" y="209.51" width="27" height="27"/><rect class="cls-6" x="319.18" y="236.51" width="27" height="27"/><rect class="cls-8" x="319.18" y="290.51" width="27" height="27"/></g></g></svg>