<svg xmlns="http://www.w3.org/2000/svg" viewBox="0 0 482.92 69.6"><defs><style>.cls-1{fill:none;stroke:#0000cb;stroke-miterlimit:10;}</style></defs><title>Asset 12</title><g id="Layer_2" data-name="Layer 2"><g id="Layer_1-2" data-name="Layer 1"><path class="cls-1" d="M41,1.88l-12.48,42V67.72H12.7V43.89l-12-42H16.39q3.69,19.28,4.16,25.94Q22,17.29,25.32,1.88Z"/><path class="cls-1" d="M87.05,1.88v44a76.36,76.36,0,0,1-.49,10.51,14.27,14.27,0,0,1-2.89,6.22,15,15,0,0,1-6.32,4.84A23.79,23.79,0,0,1,68.1,69.1a26,26,0,0,1-10.41-2,15.66,15.66,0,0,1-6.75-5.08,14.08,14.08,0,0,1-2.64-6.61q-.41-3.48-.41-14.62v-39H65V51.25a19.44,19.44,0,0,0,.47,5.51A1.83,1.83,0,0,0,67.37,58a2,2,0,0,0,2.09-1.32,24.62,24.62,0,0,0,.47-6.24V1.88Z"/><path class="cls-1" d="M118.79,1.88v44q0,9.88-.2,12.71a9.72,9.72,0,0,1-1.86,5.1,8.46,8.46,0,0,1-4.48,3.15,30.83,30.83,0,0,1-8.51.87H95.16V56.21q1.54.12,2.24.12a4.33,4.33,0,0,0,2.89-.89,3.34,3.34,0,0,0,1.22-2.2,49.67,49.67,0,0,0,.16-5V1.88Z"/><path class="cls-1" d="M146.7,1.88V67.72H129.58V1.88Z"/><path class="cls-1" d="M196,1.88V67.72H181L172,37.79V67.72H157.73V1.88H172l9.6,29.64V1.88Z"/><path class="cls-1" d="M265.2,1.88V67.72H248.08V40.07H243V67.72H225.84V1.88H243V25.43h5.12V1.88Z"/><path class="cls-1" d="M340.69,1.88l-7.62,65.84H311.7q-2.94-15.17-5.18-34.52-1,8.3-4.77,34.52H280.49L272.82,1.88h16.63l1.81,23L293,47.06q.95-17.24,4.73-45.18h17.78q.35,2.89,1.87,21.71l1.89,25q1.46-23.91,4.78-46.76Z"/><path class="cls-1" d="M377,1.88l9.79,65.84h-17.5l-.92-11.83h-6.12l-1,11.83h-17.7l8.73-65.84Zm-9.07,42.33q-1.3-11.19-2.61-27.65Q362.72,35.47,362,44.21Z"/><path class="cls-1" d="M432.1,1.88V67.72h-15l-8.91-29.93V67.72H393.87V1.88h14.31l9.6,29.64V1.88Z"/><path class="cls-1" d="M482.42,26.12H465.3v-6q0-5.65-.49-7.08a2.56,2.56,0,0,0-4.47-.2q-.57,1.22-.57,6.26v31.6a18.81,18.81,0,0,0,.57,5.84,2.22,2.22,0,0,0,2.28,1.4,2.51,2.51,0,0,0,2.54-1.59q.67-1.58.67-6.18V42.38h-3.46v-10h20V67.72H471.66L470.08,63a12,12,0,0,1-4.42,4.57,12.44,12.44,0,0,1-6.29,1.53A16.35,16.35,0,0,1,451.3,67a15.45,15.45,0,0,1-5.72-5.18,16.4,16.4,0,0,1-2.44-6.49,77.91,77.91,0,0,1-.49-10.19V25.59q0-9.43,1-13.7t5.84-7.83Q454.32.5,462,.5t12.48,3.09q5,3.09,6.47,7.34t1.5,12.34Z"/></g></g></svg>