<svg xmlns="http://www.w3.org/2000/svg" viewBox="0 0 277.56 387.34"><defs><style>.cls-1{fill:#d9d9e4;}</style></defs><title>Asset 11</title><g id="Layer_2" data-name="Layer 2"><g id="Layer_1-2" data-name="Layer 1"><path class="cls-1" d="M140.77,6.77C138,3.6,134.86,0,128.67,0s-9.33,3.6-12.1,6.77c-2.56,2.94-4.78,5.48-9.26,5.48S100.61,9.71,98,6.77C95.28,3.6,92.14,0,85.94,0s-9.33,3.6-12.1,6.77c-2.56,2.94-4.78,5.48-9.26,5.48s-6.7-2.54-9.26-5.48C52.56,3.6,49.42,0,43.22,0s-9.33,3.6-12.1,6.77c-2.56,2.94-4.78,5.48-9.26,5.48s-6.7-2.54-9.26-5.48C9.84,3.6,6.7,0,.5,0A1.86,1.86,0,0,0,0,.08V3.69a1.86,1.86,0,0,0,.5.08C5,3.77,7.2,6.31,9.76,9.24c2.77,3.17,5.9,6.77,12.1,6.77S31.2,12.42,34,9.24c2.56-2.94,4.78-5.48,9.26-5.48s6.7,2.54,9.26,5.48c2.77,3.17,5.9,6.77,12.1,6.77s9.33-3.6,12.1-6.77c2.56-2.94,4.78-5.48,9.26-5.48s6.7,2.54,9.26,5.48C98,12.42,101.11,16,107.31,16s9.33-3.6,12.1-6.77c2.56-2.94,4.78-5.48,9.26-5.48s6.7,2.54,9.26,5.48,5.66,6.47,11.38,6.74V12.22C145.3,12,143.19,9.54,140.77,6.77Z"/><path class="cls-1" d="M269,6.77C266.26,3.6,263.12,0,256.92,0s-9.33,3.6-12.1,6.77c-2.56,2.94-4.78,5.48-9.26,5.48s-6.7-2.54-9.26-5.48C223.53,3.6,220.4,0,214.2,0s-9.33,3.6-12.1,6.77c-2.56,2.94-4.78,5.48-9.26,5.48s-6.7-2.54-9.26-5.48C180.81,3.6,177.68,0,171.48,0s-9.33,3.6-12.1,6.77c-2.56,2.94-4.78,5.48-9.26,5.48s-6.7-2.54-9.26-5.48C138.09,3.6,135,0,128.76,0a1.86,1.86,0,0,0-.5.08V3.69a1.86,1.86,0,0,0,.5.08c4.48,0,6.7,2.54,9.26,5.48,2.77,3.17,5.9,6.77,12.1,6.77s9.33-3.6,12.1-6.77c2.56-2.94,4.78-5.48,9.26-5.48s6.7,2.54,9.26,5.48c2.77,3.17,5.9,6.77,12.1,6.77s9.33-3.6,12.1-6.77c2.56-2.94,4.78-5.48,9.26-5.48s6.7,2.54,9.26,5.48c2.77,3.17,5.9,6.77,12.1,6.77s9.33-3.6,12.1-6.77c2.56-2.94,4.78-5.48,9.26-5.48s6.7,2.54,9.26,5.48,5.66,6.47,11.38,6.74V12.22C273.56,12,271.44,9.54,269,6.77Z"/><path class="cls-1" d="M140.77,22.91c-2.77-3.17-5.9-6.77-12.1-6.77s-9.33,3.6-12.1,6.77c-2.56,2.94-4.78,5.48-9.26,5.48s-6.7-2.54-9.26-5.48c-2.77-3.17-5.9-6.77-12.1-6.77s-9.33,3.6-12.1,6.77c-2.56,2.94-4.78,5.48-9.26,5.48s-6.7-2.54-9.26-5.48c-2.77-3.17-5.9-6.77-12.1-6.77s-9.33,3.6-12.1,6.77c-2.56,2.94-4.78,5.48-9.26,5.48s-6.7-2.54-9.26-5.48C9.84,19.74,6.7,16.14.5,16.14a1.86,1.86,0,0,0-.5.08v3.61a1.86,1.86,0,0,0,.5.08c4.48,0,6.7,2.54,9.26,5.48,2.77,3.17,5.9,6.77,12.1,6.77s9.33-3.6,12.1-6.77c2.56-2.94,4.78-5.48,9.26-5.48s6.7,2.54,9.26,5.48c2.77,3.17,5.9,6.77,12.1,6.77s9.33-3.6,12.1-6.77c2.56-2.94,4.78-5.48,9.26-5.48s6.7,2.54,9.26,5.48c2.77,3.17,5.9,6.77,12.1,6.77s9.33-3.6,12.1-6.77c2.56-2.94,4.78-5.48,9.26-5.48s6.7,2.54,9.26,5.48,5.66,6.47,11.38,6.74V28.36C145.3,28.1,143.19,25.69,140.77,22.91Z"/><path class="cls-1" d="M269,22.91c-2.77-3.17-5.9-6.77-12.1-6.77s-9.33,3.6-12.1,6.77c-2.56,2.94-4.78,5.48-9.26,5.48s-6.7-2.54-9.26-5.48c-2.77-3.17-5.9-6.77-12.1-6.77s-9.33,3.6-12.1,6.77c-2.56,2.94-4.78,5.48-9.26,5.48s-6.7-2.54-9.26-5.48c-2.77-3.17-5.9-6.77-12.1-6.77s-9.33,3.6-12.1,6.77c-2.56,2.94-4.78,5.48-9.26,5.48s-6.7-2.54-9.26-5.48c-2.77-3.17-5.9-6.77-12.1-6.77a1.86,1.86,0,0,0-.5.08v3.61a1.86,1.86,0,0,0,.5.08c4.48,0,6.7,2.54,9.26,5.48,2.77,3.17,5.9,6.77,12.1,6.77s9.33-3.6,12.1-6.77c2.56-2.94,4.78-5.48,9.26-5.48s6.7,2.54,9.26,5.48c2.77,3.17,5.9,6.77,12.1,6.77s9.33-3.6,12.1-6.77c2.56-2.94,4.78-5.48,9.26-5.48s6.7,2.54,9.26,5.48c2.77,3.17,5.9,6.77,12.1,6.77s9.33-3.6,12.1-6.77c2.56-2.94,4.78-5.48,9.26-5.48s6.7,2.54,9.26,5.48,5.66,6.47,11.38,6.74V28.36C273.56,28.1,271.44,25.69,269,22.91Z"/><path class="cls-1" d="M140.77,55.2c-2.77-3.17-5.9-6.77-12.1-6.77s-9.33,3.6-12.1,6.77c-2.56,2.94-4.78,5.48-9.26,5.48s-6.7-2.54-9.26-5.48c-2.77-3.17-5.9-6.77-12.1-6.77S76.61,52,73.84,55.2c-2.56,2.94-4.78,5.48-9.26,5.48s-6.7-2.54-9.26-5.48c-2.77-3.17-5.9-6.77-12.1-6.77S33.89,52,31.12,55.2c-2.56,2.94-4.78,5.48-9.26,5.48s-6.7-2.54-9.26-5.48C9.84,52,6.7,48.43.5,48.43a1.86,1.86,0,0,0-.5.08v3.61a1.86,1.86,0,0,0,.5.08c4.48,0,6.7,2.54,9.26,5.48,2.77,3.17,5.9,6.77,12.1,6.77s9.33-3.6,12.1-6.77c2.56-2.94,4.78-5.48,9.26-5.48s6.7,2.54,9.26,5.48c2.77,3.17,5.9,6.77,12.1,6.77s9.33-3.6,12.1-6.77c2.56-2.94,4.78-5.48,9.26-5.48s6.7,2.54,9.26,5.48c2.77,3.17,5.9,6.77,12.1,6.77s9.33-3.6,12.1-6.77c2.56-2.94,4.78-5.48,9.26-5.48s6.7,2.54,9.26,5.48,5.66,6.47,11.38,6.74V60.65C145.3,60.39,143.19,58,140.77,55.2Z"/><path class="cls-1" d="M269,55.2c-2.77-3.17-5.9-6.77-12.1-6.77s-9.33,3.6-12.1,6.77c-2.56,2.94-4.78,5.48-9.26,5.48s-6.7-2.54-9.26-5.48c-2.77-3.17-5.9-6.77-12.1-6.77s-9.33,3.6-12.1,6.77c-2.56,2.94-4.78,5.48-9.26,5.48s-6.7-2.54-9.26-5.48c-2.77-3.17-5.9-6.77-12.1-6.77s-9.33,3.6-12.1,6.77c-2.56,2.94-4.78,5.48-9.26,5.48s-6.7-2.54-9.26-5.48c-2.77-3.17-5.9-6.77-12.1-6.77a1.86,1.86,0,0,0-.5.08v3.61a1.86,1.86,0,0,0,.5.08c4.48,0,6.7,2.54,9.26,5.48,2.77,3.17,5.9,6.77,12.1,6.77s9.33-3.6,12.1-6.77c2.56-2.94,4.78-5.48,9.26-5.48s6.7,2.54,9.26,5.48c2.77,3.17,5.9,6.77,12.1,6.77s9.33-3.6,12.1-6.77c2.56-2.94,4.78-5.48,9.26-5.48s6.7,2.54,9.26,5.48c2.77,3.17,5.9,6.77,12.1,6.77s9.33-3.6,12.1-6.77c2.56-2.94,4.78-5.48,9.26-5.48s6.7,2.54,9.26,5.48,5.66,6.47,11.38,6.74V60.65C273.56,60.39,271.44,58,269,55.2Z"/><path class="cls-1" d="M140.77,39.06c-2.77-3.17-5.9-6.77-12.1-6.77s-9.33,3.6-12.1,6.77c-2.56,2.94-4.78,5.48-9.26,5.48S100.61,42,98,39.06c-2.77-3.17-5.9-6.77-12.1-6.77s-9.33,3.6-12.1,6.77c-2.56,2.94-4.78,5.48-9.26,5.48s-6.7-2.54-9.26-5.48c-2.77-3.17-5.9-6.77-12.1-6.77s-9.33,3.6-12.1,6.77c-2.56,2.94-4.78,5.48-9.26,5.48S15.17,42,12.6,39.06C9.84,35.89,6.7,32.29.5,32.29a1.86,1.86,0,0,0-.5.08V36a1.86,1.86,0,0,0,.5.08c4.48,0,6.7,2.54,9.26,5.48,2.77,3.17,5.9,6.77,12.1,6.77s9.33-3.6,12.1-6.77c2.56-2.94,4.78-5.48,9.26-5.48s6.7,2.54,9.26,5.48c2.77,3.17,5.9,6.77,12.1,6.77s9.33-3.6,12.1-6.77c2.56-2.94,4.78-5.48,9.26-5.48s6.7,2.54,9.26,5.48c2.77,3.17,5.9,6.77,12.1,6.77s9.33-3.6,12.1-6.77c2.56-2.94,4.78-5.48,9.26-5.48s6.7,2.54,9.26,5.48,5.66,6.47,11.38,6.74V44.51C145.3,44.25,143.19,41.83,140.77,39.06Z"/><path class="cls-1" d="M269,39.06c-2.77-3.17-5.9-6.77-12.1-6.77s-9.33,3.6-12.1,6.77c-2.56,2.94-4.78,5.48-9.26,5.48s-6.7-2.54-9.26-5.48c-2.77-3.17-5.9-6.77-12.1-6.77s-9.33,3.6-12.1,6.77c-2.56,2.94-4.78,5.48-9.26,5.48s-6.7-2.54-9.26-5.48c-2.77-3.17-5.9-6.77-12.1-6.77s-9.33,3.6-12.1,6.77c-2.56,2.94-4.78,5.48-9.26,5.48s-6.7-2.54-9.26-5.48c-2.77-3.17-5.9-6.77-12.1-6.77a1.86,1.86,0,0,0-.5.08V36a1.86,1.86,0,0,0,.5.08c4.48,0,6.7,2.54,9.26,5.48,2.77,3.17,5.9,6.77,12.1,6.77s9.33-3.6,12.1-6.77c2.56-2.94,4.78-5.48,9.26-5.48s6.7,2.54,9.26,5.48c2.77,3.17,5.9,6.77,12.1,6.77s9.33-3.6,12.1-6.77c2.56-2.94,4.78-5.48,9.26-5.48s6.7,2.54,9.26,5.48c2.77,3.17,5.9,6.77,12.1,6.77s9.33-3.6,12.1-6.77c2.56-2.94,4.78-5.48,9.26-5.48s6.7,2.54,9.26,5.48,5.66,6.47,11.38,6.74V44.51C273.56,44.25,271.44,41.83,269,39.06Z"/><path class="cls-1" d="M140.77,71.35c-2.77-3.17-5.9-6.77-12.1-6.77s-9.33,3.6-12.1,6.77c-2.56,2.94-4.78,5.48-9.26,5.48s-6.7-2.54-9.26-5.48c-2.77-3.17-5.9-6.77-12.1-6.77s-9.33,3.6-12.1,6.77c-2.56,2.94-4.78,5.48-9.26,5.48s-6.7-2.54-9.26-5.48c-2.77-3.17-5.9-6.77-12.1-6.77s-9.33,3.6-12.1,6.77c-2.56,2.94-4.78,5.48-9.26,5.48s-6.7-2.54-9.26-5.48C9.84,68.17,6.7,64.58.5,64.58a1.86,1.86,0,0,0-.5.08v3.61a1.86,1.86,0,0,0,.5.08c4.48,0,6.7,2.54,9.26,5.48,2.77,3.17,5.9,6.77,12.1,6.77S31.2,77,34,73.82c2.56-2.94,4.78-5.48,9.26-5.48s6.7,2.54,9.26,5.48c2.77,3.17,5.9,6.77,12.1,6.77s9.33-3.6,12.1-6.77c2.56-2.94,4.78-5.48,9.26-5.48s6.7,2.54,9.26,5.48c2.77,3.17,5.9,6.77,12.1,6.77s9.33-3.6,12.1-6.77c2.56-2.94,4.78-5.48,9.26-5.48s6.7,2.54,9.26,5.48,5.66,6.47,11.38,6.74V76.8C145.3,76.54,143.19,74.12,140.77,71.35Z"/><path class="cls-1" d="M269,71.35c-2.77-3.17-5.9-6.77-12.1-6.77s-9.33,3.6-12.1,6.77c-2.56,2.94-4.78,5.48-9.26,5.48s-6.7-2.54-9.26-5.48c-2.77-3.17-5.9-6.77-12.1-6.77s-9.33,3.6-12.1,6.77c-2.56,2.94-4.78,5.48-9.26,5.48s-6.7-2.54-9.26-5.48c-2.77-3.17-5.9-6.77-12.1-6.77s-9.33,3.6-12.1,6.77c-2.56,2.94-4.78,5.48-9.26,5.48s-6.7-2.54-9.26-5.48c-2.77-3.17-5.9-6.77-12.1-6.77a1.86,1.86,0,0,0-.5.08v3.61a1.86,1.86,0,0,0,.5.08c4.48,0,6.7,2.54,9.26,5.48,2.77,3.17,5.9,6.77,12.1,6.77s9.33-3.6,12.1-6.77c2.56-2.94,4.78-5.48,9.26-5.48s6.7,2.54,9.26,5.48c2.77,3.17,5.9,6.77,12.1,6.77s9.33-3.6,12.1-6.77c2.56-2.94,4.78-5.48,9.26-5.48s6.7,2.54,9.26,5.48c2.77,3.17,5.9,6.77,12.1,6.77s9.33-3.6,12.1-6.77c2.56-2.94,4.78-5.48,9.26-5.48s6.7,2.54,9.26,5.48,5.66,6.47,11.38,6.74V76.8C273.56,76.54,271.44,74.12,269,71.35Z"/><path class="cls-1" d="M140.77,87.49c-2.77-3.17-5.9-6.77-12.1-6.77s-9.33,3.6-12.1,6.77C114,90.43,111.79,93,107.31,93s-6.7-2.54-9.26-5.48c-2.77-3.17-5.9-6.77-12.1-6.77s-9.33,3.6-12.1,6.77C71.28,90.43,69.07,93,64.58,93s-6.7-2.54-9.26-5.48c-2.77-3.17-5.9-6.77-12.1-6.77s-9.33,3.6-12.1,6.77C28.56,90.43,26.35,93,21.86,93s-6.7-2.54-9.26-5.48C9.84,84.32,6.7,80.72.5,80.72a1.86,1.86,0,0,0-.5.08v3.61a1.86,1.86,0,0,0,.5.08C5,84.49,7.2,87,9.76,90c2.77,3.17,5.9,6.77,12.1,6.77S31.2,93.14,34,90c2.56-2.94,4.78-5.48,9.26-5.48S49.92,87,52.48,90c2.77,3.17,5.9,6.77,12.1,6.77s9.33-3.6,12.1-6.77c2.56-2.94,4.78-5.48,9.26-5.48S92.64,87,95.21,90c2.77,3.17,5.9,6.77,12.1,6.77s9.33-3.6,12.1-6.77c2.56-2.94,4.78-5.48,9.26-5.48s6.7,2.54,9.26,5.48,5.66,6.47,11.38,6.74V92.94C145.3,92.68,143.19,90.27,140.77,87.49Z"/><path class="cls-1" d="M269,87.49c-2.77-3.17-5.9-6.77-12.1-6.77s-9.33,3.6-12.1,6.77C242.26,90.43,240,93,235.56,93s-6.7-2.54-9.26-5.48c-2.77-3.17-5.9-6.77-12.1-6.77s-9.33,3.6-12.1,6.77c-2.56,2.94-4.78,5.48-9.26,5.48s-6.7-2.54-9.26-5.48c-2.77-3.17-5.9-6.77-12.1-6.77s-9.33,3.6-12.1,6.77c-2.56,2.94-4.78,5.48-9.26,5.48s-6.7-2.54-9.26-5.48c-2.77-3.17-5.9-6.77-12.1-6.77a1.86,1.86,0,0,0-.5.08v3.61a1.86,1.86,0,0,0,.5.08c4.48,0,6.7,2.54,9.26,5.48,2.77,3.17,5.9,6.77,12.1,6.77s9.33-3.6,12.1-6.77c2.56-2.94,4.78-5.48,9.26-5.48s6.7,2.54,9.26,5.48c2.77,3.17,5.9,6.77,12.1,6.77s9.33-3.6,12.1-6.77c2.56-2.94,4.78-5.48,9.26-5.48S220.9,87,223.46,90c2.77,3.17,5.9,6.77,12.1,6.77s9.33-3.6,12.1-6.77c2.56-2.94,4.78-5.48,9.26-5.48s6.7,2.54,9.26,5.48,5.66,6.47,11.38,6.74V92.94C273.56,92.68,271.44,90.27,269,87.49Z"/><path class="cls-1" d="M140.77,103.63c-2.77-3.17-5.9-6.77-12.1-6.77s-9.33,3.6-12.1,6.77c-2.56,2.94-4.78,5.48-9.26,5.48s-6.7-2.54-9.26-5.48c-2.77-3.17-5.9-6.77-12.1-6.77s-9.33,3.6-12.1,6.77c-2.56,2.94-4.78,5.48-9.26,5.48s-6.7-2.54-9.26-5.48c-2.77-3.17-5.9-6.77-12.1-6.77s-9.33,3.6-12.1,6.77c-2.56,2.94-4.78,5.48-9.26,5.48s-6.7-2.54-9.26-5.48C9.84,100.46,6.7,96.87.5,96.87a1.86,1.86,0,0,0-.5.08v3.61a1.86,1.86,0,0,0,.5.08c4.48,0,6.7,2.54,9.26,5.48,2.77,3.17,5.9,6.77,12.1,6.77s9.33-3.6,12.1-6.77c2.56-2.94,4.78-5.48,9.26-5.48s6.7,2.54,9.26,5.48c2.77,3.17,5.9,6.77,12.1,6.77s9.33-3.6,12.1-6.77c2.56-2.94,4.78-5.48,9.26-5.48s6.7,2.54,9.26,5.48c2.77,3.17,5.9,6.77,12.1,6.77s9.33-3.6,12.1-6.77c2.56-2.94,4.78-5.48,9.26-5.48s6.7,2.54,9.26,5.48,5.66,6.47,11.38,6.74v-3.77C145.3,108.83,143.19,106.41,140.77,103.63Z"/><path class="cls-1" d="M269,103.63c-2.77-3.17-5.9-6.77-12.1-6.77s-9.33,3.6-12.1,6.77c-2.56,2.94-4.78,5.48-9.26,5.48s-6.7-2.54-9.26-5.48c-2.77-3.17-5.9-6.77-12.1-6.77s-9.33,3.6-12.1,6.77c-2.56,2.94-4.78,5.48-9.26,5.48s-6.7-2.54-9.26-5.48c-2.77-3.17-5.9-6.77-12.1-6.77s-9.33,3.6-12.1,6.77c-2.56,2.94-4.78,5.48-9.26,5.48s-6.7-2.54-9.26-5.48c-2.77-3.17-5.9-6.77-12.1-6.77a1.86,1.86,0,0,0-.5.08v3.61a1.86,1.86,0,0,0,.5.08c4.48,0,6.7,2.54,9.26,5.48,2.77,3.17,5.9,6.77,12.1,6.77s9.33-3.6,12.1-6.77c2.56-2.94,4.78-5.48,9.26-5.48s6.7,2.54,9.26,5.48c2.77,3.17,5.9,6.77,12.1,6.77s9.33-3.6,12.1-6.77c2.56-2.94,4.78-5.48,9.26-5.48s6.7,2.54,9.26,5.48c2.77,3.17,5.9,6.77,12.1,6.77s9.33-3.6,12.1-6.77c2.56-2.94,4.78-5.48,9.26-5.48s6.7,2.54,9.26,5.48,5.66,6.47,11.38,6.74v-3.77C273.56,108.83,271.44,106.41,269,103.63Z"/><path class="cls-1" d="M140.77,119.78c-2.77-3.17-5.9-6.77-12.1-6.77s-9.33,3.6-12.1,6.77c-2.56,2.94-4.78,5.48-9.26,5.48s-6.7-2.54-9.26-5.48c-2.77-3.17-5.9-6.77-12.1-6.77s-9.33,3.6-12.1,6.77c-2.56,2.94-4.78,5.48-9.26,5.48s-6.7-2.54-9.26-5.48c-2.77-3.17-5.9-6.77-12.1-6.77s-9.33,3.6-12.1,6.77c-2.56,2.94-4.78,5.48-9.26,5.48s-6.7-2.54-9.26-5.48C9.84,116.61,6.7,113,.5,113a1.86,1.86,0,0,0-.5.08v3.61a1.86,1.86,0,0,0,.5.08c4.48,0,6.7,2.54,9.26,5.48,2.77,3.17,5.9,6.77,12.1,6.77s9.33-3.6,12.1-6.77c2.56-2.94,4.78-5.48,9.26-5.48s6.7,2.54,9.26,5.48c2.77,3.17,5.9,6.77,12.1,6.77s9.33-3.6,12.1-6.77c2.56-2.94,4.78-5.48,9.26-5.48s6.7,2.54,9.26,5.48c2.77,3.17,5.9,6.77,12.1,6.77s9.33-3.6,12.1-6.77c2.56-2.94,4.78-5.48,9.26-5.48s6.7,2.54,9.26,5.48,5.66,6.47,11.38,6.74v-3.77C145.3,125,143.19,122.56,140.77,119.78Z"/><path class="cls-1" d="M269,119.78c-2.77-3.17-5.9-6.77-12.1-6.77s-9.33,3.6-12.1,6.77c-2.56,2.94-4.78,5.48-9.26,5.48s-6.7-2.54-9.26-5.48c-2.77-3.17-5.9-6.77-12.1-6.77s-9.33,3.6-12.1,6.77c-2.56,2.94-4.78,5.48-9.26,5.48s-6.7-2.54-9.26-5.48c-2.77-3.17-5.9-6.77-12.1-6.77s-9.33,3.6-12.1,6.77c-2.56,2.94-4.78,5.48-9.26,5.48s-6.7-2.54-9.26-5.48c-2.77-3.17-5.9-6.77-12.1-6.77a1.86,1.86,0,0,0-.5.08v3.61a1.86,1.86,0,0,0,.5.08c4.48,0,6.7,2.54,9.26,5.48,2.77,3.17,5.9,6.77,12.1,6.77s9.33-3.6,12.1-6.77c2.56-2.94,4.78-5.48,9.26-5.48s6.7,2.54,9.26,5.48c2.77,3.17,5.9,6.77,12.1,6.77s9.33-3.6,12.1-6.77c2.56-2.94,4.78-5.48,9.26-5.48s6.7,2.54,9.26,5.48c2.77,3.17,5.9,6.77,12.1,6.77s9.33-3.6,12.1-6.77c2.56-2.94,4.78-5.48,9.26-5.48s6.7,2.54,9.26,5.48,5.66,6.47,11.38,6.74v-3.77C273.56,125,271.44,122.56,269,119.78Z"/><path class="cls-1" d="M140.77,152.07c-2.77-3.17-5.9-6.77-12.1-6.77s-9.33,3.6-12.1,6.77c-2.56,2.94-4.78,5.48-9.26,5.48s-6.7-2.54-9.26-5.48c-2.77-3.17-5.9-6.77-12.1-6.77s-9.33,3.6-12.1,6.77c-2.56,2.94-4.78,5.48-9.26,5.48s-6.7-2.54-9.26-5.48c-2.77-3.17-5.9-6.77-12.1-6.77s-9.33,3.6-12.1,6.77c-2.56,2.94-4.78,5.48-9.26,5.48s-6.7-2.54-9.26-5.48C9.84,148.9,6.7,145.3.5,145.3a1.86,1.86,0,0,0-.5.08V149a1.86,1.86,0,0,0,.5.08c4.48,0,6.7,2.54,9.26,5.48,2.77,3.17,5.9,6.77,12.1,6.77s9.33-3.6,12.1-6.77c2.56-2.94,4.78-5.48,9.26-5.48s6.7,2.54,9.26,5.48c2.77,3.17,5.9,6.77,12.1,6.77s9.33-3.6,12.1-6.77c2.56-2.94,4.78-5.48,9.26-5.48s6.7,2.54,9.26,5.48c2.77,3.17,5.9,6.77,12.1,6.77s9.33-3.6,12.1-6.77c2.56-2.94,4.78-5.48,9.26-5.48s6.7,2.54,9.26,5.48,5.66,6.47,11.38,6.74v-3.77C145.3,157.26,143.19,154.84,140.77,152.07Z"/><path class="cls-1" d="M269,152.07c-2.77-3.17-5.9-6.77-12.1-6.77s-9.33,3.6-12.1,6.77c-2.56,2.94-4.78,5.48-9.26,5.48s-6.7-2.54-9.26-5.48c-2.77-3.17-5.9-6.77-12.1-6.77s-9.33,3.6-12.1,6.77c-2.56,2.94-4.78,5.48-9.26,5.48s-6.7-2.54-9.26-5.48c-2.77-3.17-5.9-6.77-12.1-6.77s-9.33,3.6-12.1,6.77c-2.56,2.94-4.78,5.48-9.26,5.48s-6.7-2.54-9.26-5.48c-2.77-3.17-5.9-6.77-12.1-6.77a1.86,1.86,0,0,0-.5.08V149a1.86,1.86,0,0,0,.5.08c4.48,0,6.7,2.54,9.26,5.48,2.77,3.17,5.9,6.77,12.1,6.77s9.33-3.6,12.1-6.77c2.56-2.94,4.78-5.48,9.26-5.48s6.7,2.54,9.26,5.48c2.77,3.17,5.9,6.77,12.1,6.77s9.33-3.6,12.1-6.77c2.56-2.94,4.78-5.48,9.26-5.48s6.7,2.54,9.26,5.48c2.77,3.17,5.9,6.77,12.1,6.77s9.33-3.6,12.1-6.77c2.56-2.94,4.78-5.48,9.26-5.48s6.7,2.54,9.26,5.48,5.66,6.47,11.38,6.74v-3.77C273.56,157.26,271.44,154.84,269,152.07Z"/><path class="cls-1" d="M140.77,135.92c-2.77-3.17-5.9-6.77-12.1-6.77s-9.33,3.6-12.1,6.77c-2.56,2.94-4.78,5.48-9.26,5.48s-6.7-2.54-9.26-5.48c-2.77-3.17-5.9-6.77-12.1-6.77s-9.33,3.6-12.1,6.77c-2.56,2.94-4.78,5.48-9.26,5.48s-6.7-2.54-9.26-5.48c-2.77-3.17-5.9-6.77-12.1-6.77s-9.33,3.6-12.1,6.77c-2.56,2.94-4.78,5.48-9.26,5.48s-6.7-2.54-9.26-5.48c-2.77-3.17-5.9-6.77-12.1-6.77a1.86,1.86,0,0,0-.5.08v3.61a1.86,1.86,0,0,0,.5.08c4.48,0,6.7,2.54,9.26,5.48,2.77,3.17,5.9,6.77,12.1,6.77s9.33-3.6,12.1-6.77c2.56-2.94,4.78-5.48,9.26-5.48s6.7,2.54,9.26,5.48c2.77,3.17,5.9,6.77,12.1,6.77s9.33-3.6,12.1-6.77c2.56-2.94,4.78-5.48,9.26-5.48s6.7,2.54,9.26,5.48c2.77,3.17,5.9,6.77,12.1,6.77s9.33-3.6,12.1-6.77c2.56-2.94,4.78-5.48,9.26-5.48s6.7,2.54,9.26,5.48,5.66,6.47,11.38,6.74v-3.77C145.3,141.12,143.19,138.7,140.77,135.92Z"/><path class="cls-1" d="M269,135.92c-2.77-3.17-5.9-6.77-12.1-6.77s-9.33,3.6-12.1,6.77c-2.56,2.94-4.78,5.48-9.26,5.48s-6.7-2.54-9.26-5.48c-2.77-3.17-5.9-6.77-12.1-6.77s-9.33,3.6-12.1,6.77c-2.56,2.94-4.78,5.48-9.26,5.48s-6.7-2.54-9.26-5.48c-2.77-3.17-5.9-6.77-12.1-6.77s-9.33,3.6-12.1,6.77c-2.56,2.94-4.78,5.48-9.26,5.48s-6.7-2.54-9.26-5.48c-2.77-3.17-5.9-6.77-12.1-6.77a1.86,1.86,0,0,0-.5.08v3.61a1.86,1.86,0,0,0,.5.08c4.48,0,6.7,2.54,9.26,5.48,2.77,3.17,5.9,6.77,12.1,6.77s9.33-3.6,12.1-6.77c2.56-2.94,4.78-5.48,9.26-5.48s6.7,2.54,9.26,5.48c2.77,3.17,5.9,6.77,12.1,6.77s9.33-3.6,12.1-6.77c2.56-2.94,4.78-5.48,9.26-5.48s6.7,2.54,9.26,5.48c2.77,3.17,5.9,6.77,12.1,6.77s9.33-3.6,12.1-6.77c2.56-2.94,4.78-5.48,9.26-5.48s6.7,2.54,9.26,5.48,5.66,6.47,11.38,6.74v-3.77C273.56,141.12,271.44,138.7,269,135.92Z"/><path class="cls-1" d="M140.77,168.21c-2.77-3.17-5.9-6.77-12.1-6.77s-9.33,3.6-12.1,6.77c-2.56,2.94-4.78,5.48-9.26,5.48s-6.7-2.54-9.26-5.48c-2.77-3.17-5.9-6.77-12.1-6.77s-9.33,3.6-12.1,6.77c-2.56,2.94-4.78,5.48-9.26,5.48s-6.7-2.54-9.26-5.48c-2.77-3.17-5.9-6.77-12.1-6.77s-9.33,3.6-12.1,6.77c-2.56,2.94-4.78,5.48-9.26,5.48s-6.7-2.54-9.26-5.48C9.84,165,6.7,161.45.5,161.45a1.86,1.86,0,0,0-.5.08v3.61a1.86,1.86,0,0,0,.5.08c4.48,0,6.7,2.54,9.26,5.48,2.77,3.17,5.9,6.77,12.1,6.77s9.33-3.6,12.1-6.77c2.56-2.94,4.78-5.48,9.26-5.48s6.7,2.54,9.26,5.48c2.77,3.17,5.9,6.77,12.1,6.77s9.33-3.6,12.1-6.77c2.56-2.94,4.78-5.48,9.26-5.48s6.7,2.54,9.26,5.48c2.77,3.17,5.9,6.77,12.1,6.77s9.33-3.6,12.1-6.77c2.56-2.94,4.78-5.48,9.26-5.48s6.7,2.54,9.26,5.48,5.66,6.47,11.38,6.74v-3.77C145.3,173.41,143.19,171,140.77,168.21Z"/><path class="cls-1" d="M269,168.21c-2.77-3.17-5.9-6.77-12.1-6.77s-9.33,3.6-12.1,6.77c-2.56,2.94-4.78,5.48-9.26,5.48s-6.7-2.54-9.26-5.48c-2.77-3.17-5.9-6.77-12.1-6.77s-9.33,3.6-12.1,6.77c-2.56,2.94-4.78,5.48-9.26,5.48s-6.7-2.54-9.26-5.48c-2.77-3.17-5.9-6.77-12.1-6.77s-9.33,3.6-12.1,6.77c-2.56,2.94-4.78,5.48-9.26,5.48s-6.7-2.54-9.26-5.48c-2.77-3.17-5.9-6.77-12.1-6.77a1.86,1.86,0,0,0-.5.08v3.61a1.86,1.86,0,0,0,.5.08c4.48,0,6.7,2.54,9.26,5.48,2.77,3.17,5.9,6.77,12.1,6.77s9.33-3.6,12.1-6.77c2.56-2.94,4.78-5.48,9.26-5.48s6.7,2.54,9.26,5.48c2.77,3.17,5.9,6.77,12.1,6.77s9.33-3.6,12.1-6.77c2.56-2.94,4.78-5.48,9.26-5.48s6.7,2.54,9.26,5.48c2.77,3.17,5.9,6.77,12.1,6.77s9.33-3.6,12.1-6.77c2.56-2.94,4.78-5.48,9.26-5.48s6.7,2.54,9.26,5.48,5.66,6.47,11.38,6.74v-3.77C273.56,173.41,271.44,171,269,168.21Z"/><path class="cls-1" d="M140.77,184.36c-2.77-3.17-5.9-6.77-12.1-6.77s-9.33,3.6-12.1,6.77c-2.56,2.94-4.78,5.48-9.26,5.48s-6.7-2.54-9.26-5.48c-2.77-3.17-5.9-6.77-12.1-6.77s-9.33,3.6-12.1,6.77c-2.56,2.94-4.78,5.48-9.26,5.48s-6.7-2.54-9.26-5.48c-2.77-3.17-5.9-6.77-12.1-6.77s-9.33,3.6-12.1,6.77c-2.56,2.94-4.78,5.48-9.26,5.48s-6.7-2.54-9.26-5.48c-2.77-3.17-5.9-6.77-12.1-6.77a1.86,1.86,0,0,0-.5.08v3.61a1.86,1.86,0,0,0,.5.08c4.48,0,6.7,2.54,9.26,5.48,2.77,3.17,5.9,6.77,12.1,6.77S31.2,190,34,186.84c2.56-2.94,4.78-5.48,9.26-5.48s6.7,2.54,9.26,5.48c2.77,3.17,5.9,6.77,12.1,6.77s9.33-3.6,12.1-6.77c2.56-2.94,4.78-5.48,9.26-5.48s6.7,2.54,9.26,5.48c2.77,3.17,5.9,6.77,12.1,6.77s9.33-3.6,12.1-6.77c2.56-2.94,4.78-5.48,9.26-5.48s6.7,2.54,9.26,5.48,5.66,6.47,11.38,6.74v-3.77C145.3,189.55,143.19,187.13,140.77,184.36Z"/><path class="cls-1" d="M269,184.36c-2.77-3.17-5.9-6.77-12.1-6.77s-9.33,3.6-12.1,6.77c-2.56,2.94-4.78,5.48-9.26,5.48s-6.7-2.54-9.26-5.48c-2.77-3.17-5.9-6.77-12.1-6.77s-9.33,3.6-12.1,6.77c-2.56,2.94-4.78,5.48-9.26,5.48s-6.7-2.54-9.26-5.48c-2.77-3.17-5.9-6.77-12.1-6.77s-9.33,3.6-12.1,6.77c-2.56,2.94-4.78,5.48-9.26,5.48s-6.7-2.54-9.26-5.48c-2.77-3.17-5.9-6.77-12.1-6.77a1.86,1.86,0,0,0-.5.08v3.61a1.86,1.86,0,0,0,.5.08c4.48,0,6.7,2.54,9.26,5.48,2.77,3.17,5.9,6.77,12.1,6.77s9.33-3.6,12.1-6.77c2.56-2.94,4.78-5.48,9.26-5.48s6.7,2.54,9.26,5.48c2.77,3.17,5.9,6.77,12.1,6.77s9.33-3.6,12.1-6.77c2.56-2.94,4.78-5.48,9.26-5.48s6.7,2.54,9.26,5.48c2.77,3.17,5.9,6.77,12.1,6.77s9.33-3.6,12.1-6.77c2.56-2.94,4.78-5.48,9.26-5.48s6.7,2.54,9.26,5.48,5.66,6.47,11.38,6.74v-3.77C273.56,189.55,271.44,187.13,269,184.36Z"/><path class="cls-1" d="M140.77,200.5c-2.77-3.17-5.9-6.77-12.1-6.77s-9.33,3.6-12.1,6.77c-2.56,2.94-4.78,5.48-9.26,5.48s-6.7-2.54-9.26-5.48c-2.77-3.17-5.9-6.77-12.1-6.77s-9.33,3.6-12.1,6.77c-2.56,2.94-4.78,5.48-9.26,5.48s-6.7-2.54-9.26-5.48c-2.77-3.17-5.9-6.77-12.1-6.77s-9.33,3.6-12.1,6.77c-2.56,2.94-4.78,5.48-9.26,5.48s-6.7-2.54-9.26-5.48c-2.77-3.17-5.9-6.77-12.1-6.77a1.86,1.86,0,0,0-.5.08v3.61a1.86,1.86,0,0,0,.5.08C5,197.5,7.2,200,9.76,203c2.77,3.17,5.9,6.77,12.1,6.77S31.2,206.15,34,203c2.56-2.94,4.78-5.48,9.26-5.48s6.7,2.54,9.26,5.48c2.77,3.17,5.9,6.77,12.1,6.77s9.33-3.6,12.1-6.77c2.56-2.94,4.78-5.48,9.26-5.48s6.7,2.54,9.26,5.48c2.77,3.17,5.9,6.77,12.1,6.77s9.33-3.6,12.1-6.77c2.56-2.94,4.78-5.48,9.26-5.48s6.7,2.54,9.26,5.48,5.66,6.47,11.38,6.74V206C145.3,205.7,143.19,203.28,140.77,200.5Z"/><path class="cls-1" d="M269,200.5c-2.77-3.17-5.9-6.77-12.1-6.77s-9.33,3.6-12.1,6.77c-2.56,2.94-4.78,5.48-9.26,5.48s-6.7-2.54-9.26-5.48c-2.77-3.17-5.9-6.77-12.1-6.77s-9.33,3.6-12.1,6.77c-2.56,2.94-4.78,5.48-9.26,5.48s-6.7-2.54-9.26-5.48c-2.77-3.17-5.9-6.77-12.1-6.77s-9.33,3.6-12.1,6.77c-2.56,2.94-4.78,5.48-9.26,5.48s-6.7-2.54-9.26-5.48c-2.77-3.17-5.9-6.77-12.1-6.77a1.86,1.86,0,0,0-.5.08v3.61a1.86,1.86,0,0,0,.5.08c4.48,0,6.7,2.54,9.26,5.48,2.77,3.17,5.9,6.77,12.1,6.77s9.33-3.6,12.1-6.77c2.56-2.94,4.78-5.48,9.26-5.48s6.7,2.54,9.26,5.48c2.77,3.17,5.9,6.77,12.1,6.77s9.33-3.6,12.1-6.77c2.56-2.94,4.78-5.48,9.26-5.48s6.7,2.54,9.26,5.48c2.77,3.17,5.9,6.77,12.1,6.77s9.33-3.6,12.1-6.77c2.56-2.94,4.78-5.48,9.26-5.48s6.7,2.54,9.26,5.48,5.66,6.47,11.38,6.74V206C273.56,205.7,271.44,203.28,269,200.5Z"/><path class="cls-1" d="M140.77,216.65c-2.77-3.17-5.9-6.77-12.1-6.77s-9.33,3.6-12.1,6.77c-2.56,2.94-4.78,5.48-9.26,5.48s-6.7-2.54-9.26-5.48c-2.77-3.17-5.9-6.77-12.1-6.77s-9.33,3.6-12.1,6.77c-2.56,2.94-4.78,5.48-9.26,5.48s-6.7-2.54-9.26-5.48c-2.77-3.17-5.9-6.77-12.1-6.77s-9.33,3.6-12.1,6.77c-2.56,2.94-4.78,5.48-9.26,5.48s-6.7-2.54-9.26-5.48c-2.77-3.17-5.9-6.77-12.1-6.77A1.86,1.86,0,0,0,0,210v3.61a1.86,1.86,0,0,0,.5.08c4.48,0,6.7,2.54,9.26,5.48,2.77,3.17,5.9,6.77,12.1,6.77s9.33-3.6,12.1-6.77c2.56-2.94,4.78-5.48,9.26-5.48s6.7,2.54,9.26,5.48c2.77,3.17,5.9,6.77,12.1,6.77s9.33-3.6,12.1-6.77c2.56-2.94,4.78-5.48,9.26-5.48s6.7,2.54,9.26,5.48c2.77,3.17,5.9,6.77,12.1,6.77s9.33-3.6,12.1-6.77c2.56-2.94,4.78-5.48,9.26-5.48s6.7,2.54,9.26,5.48,5.66,6.47,11.38,6.74V222.1C145.3,221.84,143.19,219.42,140.77,216.65Z"/><path class="cls-1" d="M269,216.65c-2.77-3.17-5.9-6.77-12.1-6.77s-9.33,3.6-12.1,6.77c-2.56,2.94-4.78,5.48-9.26,5.48s-6.7-2.54-9.26-5.48c-2.77-3.17-5.9-6.77-12.1-6.77s-9.33,3.6-12.1,6.77c-2.56,2.94-4.78,5.48-9.26,5.48s-6.7-2.54-9.26-5.48c-2.77-3.17-5.9-6.77-12.1-6.77s-9.33,3.6-12.1,6.77c-2.56,2.94-4.78,5.48-9.26,5.48s-6.7-2.54-9.26-5.48c-2.77-3.17-5.9-6.77-12.1-6.77a1.86,1.86,0,0,0-.5.08v3.61a1.86,1.86,0,0,0,.5.08c4.48,0,6.7,2.54,9.26,5.48,2.77,3.17,5.9,6.77,12.1,6.77s9.33-3.6,12.1-6.77c2.56-2.94,4.78-5.48,9.26-5.48s6.7,2.54,9.26,5.48c2.77,3.17,5.9,6.77,12.1,6.77s9.33-3.6,12.1-6.77c2.56-2.94,4.78-5.48,9.26-5.48s6.7,2.54,9.26,5.48c2.77,3.17,5.9,6.77,12.1,6.77s9.33-3.6,12.1-6.77c2.56-2.94,4.78-5.48,9.26-5.48s6.7,2.54,9.26,5.48,5.66,6.47,11.38,6.74V222.1C273.56,221.84,271.44,219.42,269,216.65Z"/><path class="cls-1" d="M140.77,248.94c-2.77-3.17-5.9-6.77-12.1-6.77s-9.33,3.6-12.1,6.77c-2.56,2.94-4.78,5.48-9.26,5.48s-6.7-2.54-9.26-5.48c-2.77-3.17-5.9-6.77-12.1-6.77s-9.33,3.6-12.1,6.77c-2.56,2.94-4.78,5.48-9.26,5.48s-6.7-2.54-9.26-5.48c-2.77-3.17-5.9-6.77-12.1-6.77s-9.33,3.6-12.1,6.77c-2.56,2.94-4.78,5.48-9.26,5.48s-6.7-2.54-9.26-5.48c-2.77-3.17-5.9-6.77-12.1-6.77a1.86,1.86,0,0,0-.5.08v3.61a1.86,1.86,0,0,0,.5.08c4.48,0,6.7,2.54,9.26,5.48,2.77,3.17,5.9,6.77,12.1,6.77s9.33-3.6,12.1-6.77c2.56-2.94,4.78-5.48,9.26-5.48s6.7,2.54,9.26,5.48c2.77,3.17,5.9,6.77,12.1,6.77s9.33-3.6,12.1-6.77c2.56-2.94,4.78-5.48,9.26-5.48s6.7,2.54,9.26,5.48c2.77,3.17,5.9,6.77,12.1,6.77s9.33-3.6,12.1-6.77c2.56-2.94,4.78-5.48,9.26-5.48s6.7,2.54,9.26,5.48,5.66,6.47,11.38,6.74v-3.77C145.3,254.13,143.19,251.71,140.77,248.94Z"/><path class="cls-1" d="M269,248.94c-2.77-3.17-5.9-6.77-12.1-6.77s-9.33,3.6-12.1,6.77c-2.56,2.94-4.78,5.48-9.26,5.48s-6.7-2.54-9.26-5.48c-2.77-3.17-5.9-6.77-12.1-6.77s-9.33,3.6-12.1,6.77c-2.56,2.94-4.78,5.48-9.26,5.48s-6.7-2.54-9.26-5.48c-2.77-3.17-5.9-6.77-12.1-6.77s-9.33,3.6-12.1,6.77c-2.56,2.94-4.78,5.48-9.26,5.48s-6.7-2.54-9.26-5.48c-2.77-3.17-5.9-6.77-12.1-6.77a1.86,1.86,0,0,0-.5.08v3.61a1.86,1.86,0,0,0,.5.08c4.48,0,6.7,2.54,9.26,5.48,2.77,3.17,5.9,6.77,12.1,6.77s9.33-3.6,12.1-6.77c2.56-2.94,4.78-5.48,9.26-5.48s6.7,2.54,9.26,5.48c2.77,3.17,5.9,6.77,12.1,6.77s9.33-3.6,12.1-6.77c2.56-2.94,4.78-5.48,9.26-5.48s6.7,2.54,9.26,5.48c2.77,3.17,5.9,6.77,12.1,6.77s9.33-3.6,12.1-6.77c2.56-2.94,4.78-5.48,9.26-5.48s6.7,2.54,9.26,5.48,5.66,6.47,11.38,6.74v-3.77C273.56,254.13,271.44,251.71,269,248.94Z"/><path class="cls-1" d="M140.77,232.79c-2.77-3.17-5.9-6.77-12.1-6.77s-9.33,3.6-12.1,6.77c-2.56,2.94-4.78,5.48-9.26,5.48s-6.7-2.54-9.26-5.48c-2.77-3.17-5.9-6.77-12.1-6.77s-9.33,3.6-12.1,6.77c-2.56,2.94-4.78,5.48-9.26,5.48s-6.7-2.54-9.26-5.48c-2.77-3.17-5.9-6.77-12.1-6.77s-9.33,3.6-12.1,6.77c-2.56,2.94-4.78,5.48-9.26,5.48s-6.7-2.54-9.26-5.48C9.84,229.62,6.7,226,.5,226a1.86,1.86,0,0,0-.5.08v3.61a1.86,1.86,0,0,0,.5.08c4.48,0,6.7,2.54,9.26,5.48,2.77,3.17,5.9,6.77,12.1,6.77s9.33-3.6,12.1-6.77c2.56-2.94,4.78-5.48,9.26-5.48s6.7,2.54,9.26,5.48c2.77,3.17,5.9,6.77,12.1,6.77s9.33-3.6,12.1-6.77c2.56-2.94,4.78-5.48,9.26-5.48s6.7,2.54,9.26,5.48c2.77,3.17,5.9,6.77,12.1,6.77s9.33-3.6,12.1-6.77c2.56-2.94,4.78-5.48,9.26-5.48s6.7,2.54,9.26,5.48,5.66,6.47,11.38,6.74v-3.77C145.3,238,143.19,235.57,140.77,232.79Z"/><path class="cls-1" d="M269,232.79c-2.77-3.17-5.9-6.77-12.1-6.77s-9.33,3.6-12.1,6.77c-2.56,2.94-4.78,5.48-9.26,5.48s-6.7-2.54-9.26-5.48c-2.77-3.17-5.9-6.77-12.1-6.77s-9.33,3.6-12.1,6.77c-2.56,2.94-4.78,5.48-9.26,5.48s-6.7-2.54-9.26-5.48c-2.77-3.17-5.9-6.77-12.1-6.77s-9.33,3.6-12.1,6.77c-2.56,2.94-4.78,5.48-9.26,5.48s-6.7-2.54-9.26-5.48c-2.77-3.17-5.9-6.77-12.1-6.77a1.86,1.86,0,0,0-.5.08v3.61a1.86,1.86,0,0,0,.5.08c4.48,0,6.7,2.54,9.26,5.48,2.77,3.17,5.9,6.77,12.1,6.77s9.33-3.6,12.1-6.77c2.56-2.94,4.78-5.48,9.26-5.48s6.7,2.54,9.26,5.48c2.77,3.17,5.9,6.77,12.1,6.77s9.33-3.6,12.1-6.77c2.56-2.94,4.78-5.48,9.26-5.48s6.7,2.54,9.26,5.48c2.77,3.17,5.9,6.77,12.1,6.77s9.33-3.6,12.1-6.77c2.56-2.94,4.78-5.48,9.26-5.48s6.7,2.54,9.26,5.48,5.66,6.47,11.38,6.74v-3.77C273.56,238,271.44,235.57,269,232.79Z"/><path class="cls-1" d="M140.77,265.08c-2.77-3.17-5.9-6.77-12.1-6.77s-9.33,3.6-12.1,6.77c-2.56,2.94-4.78,5.48-9.26,5.48s-6.7-2.54-9.26-5.48c-2.77-3.17-5.9-6.77-12.1-6.77s-9.33,3.6-12.1,6.77c-2.56,2.94-4.78,5.48-9.26,5.48s-6.7-2.54-9.26-5.48c-2.77-3.17-5.9-6.77-12.1-6.77s-9.33,3.6-12.1,6.77c-2.56,2.94-4.78,5.48-9.26,5.48s-6.7-2.54-9.26-5.48c-2.77-3.17-5.9-6.77-12.1-6.77a1.86,1.86,0,0,0-.5.08V262a1.86,1.86,0,0,0,.5.08c4.48,0,6.7,2.54,9.26,5.48,2.77,3.17,5.9,6.77,12.1,6.77s9.33-3.6,12.1-6.77c2.56-2.94,4.78-5.48,9.26-5.48s6.7,2.54,9.26,5.48c2.77,3.17,5.9,6.77,12.1,6.77s9.33-3.6,12.1-6.77c2.56-2.94,4.78-5.48,9.26-5.48s6.7,2.54,9.26,5.48c2.77,3.17,5.9,6.77,12.1,6.77s9.33-3.6,12.1-6.77c2.56-2.94,4.78-5.48,9.26-5.48s6.7,2.54,9.26,5.48,5.66,6.47,11.38,6.74v-3.77C145.3,270.27,143.19,267.86,140.77,265.08Z"/><path class="cls-1" d="M269,265.08c-2.77-3.17-5.9-6.77-12.1-6.77s-9.33,3.6-12.1,6.77c-2.56,2.94-4.78,5.48-9.26,5.48s-6.7-2.54-9.26-5.48c-2.77-3.17-5.9-6.77-12.1-6.77s-9.33,3.6-12.1,6.77c-2.56,2.94-4.78,5.48-9.26,5.48s-6.7-2.54-9.26-5.48c-2.77-3.17-5.9-6.77-12.1-6.77s-9.33,3.6-12.1,6.77c-2.56,2.94-4.78,5.48-9.26,5.48s-6.7-2.54-9.26-5.48c-2.77-3.17-5.9-6.77-12.1-6.77a1.86,1.86,0,0,0-.5.08V262a1.86,1.86,0,0,0,.5.08c4.48,0,6.7,2.54,9.26,5.48,2.77,3.17,5.9,6.77,12.1,6.77s9.33-3.6,12.1-6.77c2.56-2.94,4.78-5.48,9.26-5.48s6.7,2.54,9.26,5.48c2.77,3.17,5.9,6.77,12.1,6.77s9.33-3.6,12.1-6.77c2.56-2.94,4.78-5.48,9.26-5.48s6.7,2.54,9.26,5.48c2.77,3.17,5.9,6.77,12.1,6.77s9.33-3.6,12.1-6.77c2.56-2.94,4.78-5.48,9.26-5.48s6.7,2.54,9.26,5.48,5.66,6.47,11.38,6.74v-3.77C273.56,270.27,271.44,267.86,269,265.08Z"/><path class="cls-1" d="M140.77,281.23c-2.77-3.17-5.9-6.77-12.1-6.77s-9.33,3.6-12.1,6.77c-2.56,2.94-4.78,5.48-9.26,5.48s-6.7-2.54-9.26-5.48c-2.77-3.17-5.9-6.77-12.1-6.77s-9.33,3.6-12.1,6.77c-2.56,2.94-4.78,5.48-9.26,5.48s-6.7-2.54-9.26-5.48c-2.77-3.17-5.9-6.77-12.1-6.77s-9.33,3.6-12.1,6.77c-2.56,2.94-4.78,5.48-9.26,5.48s-6.7-2.54-9.26-5.48c-2.77-3.17-5.9-6.77-12.1-6.77a1.86,1.86,0,0,0-.5.08v3.61a1.86,1.86,0,0,0,.5.08c4.48,0,6.7,2.54,9.26,5.48,2.77,3.17,5.9,6.77,12.1,6.77s9.33-3.6,12.1-6.77c2.56-2.94,4.78-5.48,9.26-5.48s6.7,2.54,9.26,5.48c2.77,3.17,5.9,6.77,12.1,6.77s9.33-3.6,12.1-6.77c2.56-2.94,4.78-5.48,9.26-5.48s6.7,2.54,9.26,5.48c2.77,3.17,5.9,6.77,12.1,6.77s9.33-3.6,12.1-6.77c2.56-2.94,4.78-5.48,9.26-5.48s6.7,2.54,9.26,5.48,5.66,6.47,11.38,6.74v-3.77C145.3,286.42,143.19,284,140.77,281.23Z"/><path class="cls-1" d="M269,281.23c-2.77-3.17-5.9-6.77-12.1-6.77s-9.33,3.6-12.1,6.77c-2.56,2.94-4.78,5.48-9.26,5.48s-6.7-2.54-9.26-5.48c-2.77-3.17-5.9-6.77-12.1-6.77s-9.33,3.6-12.1,6.77c-2.56,2.94-4.78,5.48-9.26,5.48s-6.7-2.54-9.26-5.48c-2.77-3.17-5.9-6.77-12.1-6.77s-9.33,3.6-12.1,6.77c-2.56,2.94-4.78,5.48-9.26,5.48s-6.7-2.54-9.26-5.48c-2.77-3.17-5.9-6.77-12.1-6.77a1.86,1.86,0,0,0-.5.08v3.61a1.86,1.86,0,0,0,.5.08c4.48,0,6.7,2.54,9.26,5.48,2.77,3.17,5.9,6.77,12.1,6.77s9.33-3.6,12.1-6.77c2.56-2.94,4.78-5.48,9.26-5.48s6.7,2.54,9.26,5.48c2.77,3.17,5.9,6.77,12.1,6.77s9.33-3.6,12.1-6.77c2.56-2.94,4.78-5.48,9.26-5.48s6.7,2.54,9.26,5.48c2.77,3.17,5.9,6.77,12.1,6.77s9.33-3.6,12.1-6.77c2.56-2.94,4.78-5.48,9.26-5.48s6.7,2.54,9.26,5.48,5.66,6.47,11.38,6.74v-3.77C273.56,286.42,271.44,284,269,281.23Z"/><path class="cls-1" d="M140.77,297.37c-2.77-3.17-5.9-6.77-12.1-6.77s-9.33,3.6-12.1,6.77c-2.56,2.94-4.78,5.48-9.26,5.48s-6.7-2.54-9.26-5.48c-2.77-3.17-5.9-6.77-12.1-6.77s-9.33,3.6-12.1,6.77c-2.56,2.94-4.78,5.48-9.26,5.48s-6.7-2.54-9.26-5.48c-2.77-3.17-5.9-6.77-12.1-6.77s-9.33,3.6-12.1,6.77c-2.56,2.94-4.78,5.48-9.26,5.48s-6.7-2.54-9.26-5.48C9.84,294.2,6.7,290.6.5,290.6a1.86,1.86,0,0,0-.5.08v3.61a1.86,1.86,0,0,0,.5.08c4.48,0,6.7,2.54,9.26,5.48,2.77,3.17,5.9,6.77,12.1,6.77S31.2,303,34,299.85c2.56-2.94,4.78-5.48,9.26-5.48s6.7,2.54,9.26,5.48c2.77,3.17,5.9,6.77,12.1,6.77s9.33-3.6,12.1-6.77c2.56-2.94,4.78-5.48,9.26-5.48s6.7,2.54,9.26,5.48c2.77,3.17,5.9,6.77,12.1,6.77s9.33-3.6,12.1-6.77c2.56-2.94,4.78-5.48,9.26-5.48s6.7,2.54,9.26,5.48,5.66,6.47,11.38,6.74v-3.77C145.3,302.56,143.19,300.15,140.77,297.37Z"/><path class="cls-1" d="M269,297.37c-2.77-3.17-5.9-6.77-12.1-6.77s-9.33,3.6-12.1,6.77c-2.56,2.94-4.78,5.48-9.26,5.48s-6.7-2.54-9.26-5.48c-2.77-3.17-5.9-6.77-12.1-6.77s-9.33,3.6-12.1,6.77c-2.56,2.94-4.78,5.48-9.26,5.48s-6.7-2.54-9.26-5.48c-2.77-3.17-5.9-6.77-12.1-6.77s-9.33,3.6-12.1,6.77c-2.56,2.94-4.78,5.48-9.26,5.48s-6.7-2.54-9.26-5.48c-2.77-3.17-5.9-6.77-12.1-6.77a1.86,1.86,0,0,0-.5.08v3.61a1.86,1.86,0,0,0,.5.08c4.48,0,6.7,2.54,9.26,5.48,2.77,3.17,5.9,6.77,12.1,6.77s9.33-3.6,12.1-6.77c2.56-2.94,4.78-5.48,9.26-5.48s6.7,2.54,9.26,5.48c2.77,3.17,5.9,6.77,12.1,6.77s9.33-3.6,12.1-6.77c2.56-2.94,4.78-5.48,9.26-5.48s6.7,2.54,9.26,5.48c2.77,3.17,5.9,6.77,12.1,6.77s9.33-3.6,12.1-6.77c2.56-2.94,4.78-5.48,9.26-5.48s6.7,2.54,9.26,5.48,5.66,6.47,11.38,6.74v-3.77C273.56,302.56,271.44,300.15,269,297.37Z"/><path class="cls-1" d="M140.77,313.51c-2.77-3.17-5.9-6.77-12.1-6.77s-9.33,3.6-12.1,6.77c-2.56,2.94-4.78,5.48-9.26,5.48s-6.7-2.54-9.26-5.48c-2.77-3.17-5.9-6.77-12.1-6.77s-9.33,3.6-12.1,6.77c-2.56,2.94-4.78,5.48-9.26,5.48s-6.7-2.54-9.26-5.48c-2.77-3.17-5.9-6.77-12.1-6.77s-9.33,3.6-12.1,6.77c-2.56,2.94-4.78,5.48-9.26,5.48s-6.7-2.54-9.26-5.48c-2.77-3.17-5.9-6.77-12.1-6.77a1.86,1.86,0,0,0-.5.08v3.61a1.86,1.86,0,0,0,.5.08c4.48,0,6.7,2.54,9.26,5.48,2.77,3.17,5.9,6.77,12.1,6.77S31.2,319.16,34,316c2.56-2.94,4.78-5.48,9.26-5.48s6.7,2.54,9.26,5.48c2.77,3.17,5.9,6.77,12.1,6.77s9.33-3.6,12.1-6.77c2.56-2.94,4.78-5.48,9.26-5.48s6.7,2.54,9.26,5.48c2.77,3.17,5.9,6.77,12.1,6.77s9.33-3.6,12.1-6.77c2.56-2.94,4.78-5.48,9.26-5.48s6.7,2.54,9.26,5.48,5.66,6.47,11.38,6.74V319C145.3,318.71,143.19,316.29,140.77,313.51Z"/><path class="cls-1" d="M269,313.51c-2.77-3.17-5.9-6.77-12.1-6.77s-9.33,3.6-12.1,6.77c-2.56,2.94-4.78,5.48-9.26,5.48s-6.7-2.54-9.26-5.48c-2.77-3.17-5.9-6.77-12.1-6.77s-9.33,3.6-12.1,6.77c-2.56,2.94-4.78,5.48-9.26,5.48s-6.7-2.54-9.26-5.48c-2.77-3.17-5.9-6.77-12.1-6.77s-9.33,3.6-12.1,6.77c-2.56,2.94-4.78,5.48-9.26,5.48s-6.7-2.54-9.26-5.48c-2.77-3.17-5.9-6.77-12.1-6.77a1.86,1.86,0,0,0-.5.08v3.61a1.86,1.86,0,0,0,.5.08c4.48,0,6.7,2.54,9.26,5.48,2.77,3.17,5.9,6.77,12.1,6.77s9.33-3.6,12.1-6.77c2.56-2.94,4.78-5.48,9.26-5.48s6.7,2.54,9.26,5.48c2.77,3.17,5.9,6.77,12.1,6.77s9.33-3.6,12.1-6.77c2.56-2.94,4.78-5.48,9.26-5.48s6.7,2.54,9.26,5.48c2.77,3.17,5.9,6.77,12.1,6.77s9.33-3.6,12.1-6.77c2.56-2.94,4.78-5.48,9.26-5.48s6.7,2.54,9.26,5.48,5.66,6.47,11.38,6.74V319C273.56,318.71,271.44,316.29,269,313.51Z"/><path class="cls-1" d="M140.77,345.8c-2.77-3.17-5.9-6.77-12.1-6.77s-9.33,3.6-12.1,6.77c-2.56,2.94-4.78,5.48-9.26,5.48s-6.7-2.54-9.26-5.48c-2.77-3.17-5.9-6.77-12.1-6.77s-9.33,3.6-12.1,6.77c-2.56,2.94-4.78,5.48-9.26,5.48s-6.7-2.54-9.26-5.48c-2.77-3.17-5.9-6.77-12.1-6.77s-9.33,3.6-12.1,6.77c-2.56,2.94-4.78,5.48-9.26,5.48s-6.7-2.54-9.26-5.48C9.84,342.63,6.7,339,.5,339a1.86,1.86,0,0,0-.5.08v3.61a1.86,1.86,0,0,0,.5.08c4.48,0,6.7,2.54,9.26,5.48,2.77,3.17,5.9,6.77,12.1,6.77s9.33-3.6,12.1-6.77c2.56-2.94,4.78-5.48,9.26-5.48s6.7,2.54,9.26,5.48c2.77,3.17,5.9,6.77,12.1,6.77s9.33-3.6,12.1-6.77c2.56-2.94,4.78-5.48,9.26-5.48s6.7,2.54,9.26,5.48c2.77,3.17,5.9,6.77,12.1,6.77s9.33-3.6,12.1-6.77c2.56-2.94,4.78-5.48,9.26-5.48s6.7,2.54,9.26,5.48,5.66,6.47,11.38,6.74v-3.77C145.3,351,143.19,348.58,140.77,345.8Z"/><path class="cls-1" d="M269,345.8c-2.77-3.17-5.9-6.77-12.1-6.77s-9.33,3.6-12.1,6.77c-2.56,2.94-4.78,5.48-9.26,5.48s-6.7-2.54-9.26-5.48c-2.77-3.17-5.9-6.77-12.1-6.77s-9.33,3.6-12.1,6.77c-2.56,2.94-4.78,5.48-9.26,5.48s-6.7-2.54-9.26-5.48c-2.77-3.17-5.9-6.77-12.1-6.77s-9.33,3.6-12.1,6.77c-2.56,2.94-4.78,5.48-9.26,5.48s-6.7-2.54-9.26-5.48c-2.77-3.17-5.9-6.77-12.1-6.77a1.86,1.86,0,0,0-.5.08v3.61a1.86,1.86,0,0,0,.5.08c4.48,0,6.7,2.54,9.26,5.48,2.77,3.17,5.9,6.77,12.1,6.77s9.33-3.6,12.1-6.77c2.56-2.94,4.78-5.48,9.26-5.48s6.7,2.54,9.26,5.48c2.77,3.17,5.9,6.77,12.1,6.77s9.33-3.6,12.1-6.77c2.56-2.94,4.78-5.48,9.26-5.48s6.7,2.54,9.26,5.48c2.77,3.17,5.9,6.77,12.1,6.77s9.33-3.6,12.1-6.77c2.56-2.94,4.78-5.48,9.26-5.48s6.7,2.54,9.26,5.48,5.66,6.47,11.38,6.74v-3.77C273.56,351,271.44,348.58,269,345.8Z"/><path class="cls-1" d="M140.77,329.66c-2.77-3.17-5.9-6.77-12.1-6.77s-9.33,3.6-12.1,6.77c-2.56,2.94-4.78,5.48-9.26,5.48s-6.7-2.54-9.26-5.48c-2.77-3.17-5.9-6.77-12.1-6.77s-9.33,3.6-12.1,6.77c-2.56,2.94-4.78,5.48-9.26,5.48s-6.7-2.54-9.26-5.48c-2.77-3.17-5.9-6.77-12.1-6.77s-9.33,3.6-12.1,6.77c-2.56,2.94-4.78,5.48-9.26,5.48s-6.7-2.54-9.26-5.48c-2.77-3.17-5.9-6.77-12.1-6.77A1.86,1.86,0,0,0,0,323v3.61a1.86,1.86,0,0,0,.5.08c4.48,0,6.7,2.54,9.26,5.48,2.77,3.17,5.9,6.77,12.1,6.77s9.33-3.6,12.1-6.77c2.56-2.94,4.78-5.48,9.26-5.48s6.7,2.54,9.26,5.48c2.77,3.17,5.9,6.77,12.1,6.77s9.33-3.6,12.1-6.77c2.56-2.94,4.78-5.48,9.26-5.48s6.7,2.54,9.26,5.48c2.77,3.17,5.9,6.77,12.1,6.77s9.33-3.6,12.1-6.77c2.56-2.94,4.78-5.48,9.26-5.48s6.7,2.54,9.26,5.48,5.66,6.47,11.38,6.74v-3.77C145.3,334.85,143.19,332.44,140.77,329.66Z"/><path class="cls-1" d="M269,329.66c-2.77-3.17-5.9-6.77-12.1-6.77s-9.33,3.6-12.1,6.77c-2.56,2.94-4.78,5.48-9.26,5.48s-6.7-2.54-9.26-5.48c-2.77-3.17-5.9-6.77-12.1-6.77s-9.33,3.6-12.1,6.77c-2.56,2.94-4.78,5.48-9.26,5.48s-6.7-2.54-9.26-5.48c-2.77-3.17-5.9-6.77-12.1-6.77s-9.33,3.6-12.1,6.77c-2.56,2.94-4.78,5.48-9.26,5.48s-6.7-2.54-9.26-5.48c-2.77-3.17-5.9-6.77-12.1-6.77a1.86,1.86,0,0,0-.5.08v3.61a1.86,1.86,0,0,0,.5.08c4.48,0,6.7,2.54,9.26,5.48,2.77,3.17,5.9,6.77,12.1,6.77s9.33-3.6,12.1-6.77c2.56-2.94,4.78-5.48,9.26-5.48s6.7,2.54,9.26,5.48c2.77,3.17,5.9,6.77,12.1,6.77s9.33-3.6,12.1-6.77c2.56-2.94,4.78-5.48,9.26-5.48s6.7,2.54,9.26,5.48c2.77,3.17,5.9,6.77,12.1,6.77s9.33-3.6,12.1-6.77c2.56-2.94,4.78-5.48,9.26-5.48s6.7,2.54,9.26,5.48,5.66,6.47,11.38,6.74v-3.77C273.56,334.85,271.44,332.44,269,329.66Z"/><path class="cls-1" d="M140.77,361.95c-2.77-3.17-5.9-6.77-12.1-6.77s-9.33,3.6-12.1,6.77c-2.56,2.94-4.78,5.48-9.26,5.48s-6.7-2.54-9.26-5.48c-2.77-3.17-5.9-6.77-12.1-6.77s-9.33,3.6-12.1,6.77c-2.56,2.94-4.78,5.48-9.26,5.48s-6.7-2.54-9.26-5.48c-2.77-3.17-5.9-6.77-12.1-6.77s-9.33,3.6-12.1,6.77c-2.56,2.94-4.78,5.48-9.26,5.48s-6.7-2.54-9.26-5.48c-2.77-3.17-5.9-6.77-12.1-6.77a1.86,1.86,0,0,0-.5.08v3.61a1.86,1.86,0,0,0,.5.08c4.48,0,6.7,2.54,9.26,5.48,2.77,3.17,5.9,6.77,12.1,6.77s9.33-3.6,12.1-6.77c2.56-2.94,4.78-5.48,9.26-5.48s6.7,2.54,9.26,5.48c2.77,3.17,5.9,6.77,12.1,6.77s9.33-3.6,12.1-6.77c2.56-2.94,4.78-5.48,9.26-5.48s6.7,2.54,9.26,5.48c2.77,3.17,5.9,6.77,12.1,6.77s9.33-3.6,12.1-6.77c2.56-2.94,4.78-5.48,9.26-5.48s6.7,2.54,9.26,5.48,5.66,6.47,11.38,6.74V367.4C145.3,367.14,143.19,364.72,140.77,361.95Z"/><path class="cls-1" d="M269,361.95c-2.77-3.17-5.9-6.77-12.1-6.77s-9.33,3.6-12.1,6.77c-2.56,2.94-4.78,5.48-9.26,5.48s-6.7-2.54-9.26-5.48c-2.77-3.17-5.9-6.77-12.1-6.77s-9.33,3.6-12.1,6.77c-2.56,2.94-4.78,5.48-9.26,5.48s-6.7-2.54-9.26-5.48c-2.77-3.17-5.9-6.77-12.1-6.77s-9.33,3.6-12.1,6.77c-2.56,2.94-4.78,5.48-9.26,5.48s-6.7-2.54-9.26-5.48c-2.77-3.17-5.9-6.77-12.1-6.77a1.86,1.86,0,0,0-.5.08v3.61a1.86,1.86,0,0,0,.5.08c4.48,0,6.7,2.54,9.26,5.48,2.77,3.17,5.9,6.77,12.1,6.77s9.33-3.6,12.1-6.77c2.56-2.94,4.78-5.48,9.26-5.48s6.7,2.54,9.26,5.48c2.77,3.17,5.9,6.77,12.1,6.77s9.33-3.6,12.1-6.77c2.56-2.94,4.78-5.48,9.26-5.48s6.7,2.54,9.26,5.48c2.77,3.17,5.9,6.77,12.1,6.77s9.33-3.6,12.1-6.77c2.56-2.94,4.78-5.48,9.26-5.48s6.7,2.54,9.26,5.48,5.66,6.47,11.38,6.74V367.4C273.56,367.14,271.44,364.72,269,361.95Z"/><path class="cls-1" d="M140.77,378.09c-2.77-3.17-5.9-6.77-12.1-6.77s-9.33,3.6-12.1,6.77c-2.56,2.94-4.78,5.48-9.26,5.48s-6.7-2.54-9.26-5.48c-2.77-3.17-5.9-6.77-12.1-6.77s-9.33,3.6-12.1,6.77c-2.56,2.94-4.78,5.48-9.26,5.48s-6.7-2.54-9.26-5.48c-2.77-3.17-5.9-6.77-12.1-6.77s-9.33,3.6-12.1,6.77c-2.56,2.94-4.78,5.48-9.26,5.48s-6.7-2.54-9.26-5.48c-2.77-3.17-5.9-6.77-12.1-6.77a1.86,1.86,0,0,0-.5.08V375a1.86,1.86,0,0,0,.5.08c4.48,0,6.7,2.54,9.26,5.48,2.77,3.17,5.9,6.77,12.1,6.77s9.33-3.6,12.1-6.77c2.56-2.94,4.78-5.48,9.26-5.48s6.7,2.54,9.26,5.48c2.77,3.17,5.9,6.77,12.1,6.77s9.33-3.6,12.1-6.77c2.56-2.94,4.78-5.48,9.26-5.48s6.7,2.54,9.26,5.48c2.77,3.17,5.9,6.77,12.1,6.77s9.33-3.6,12.1-6.77c2.56-2.94,4.78-5.48,9.26-5.48s6.7,2.54,9.26,5.48,5.66,6.47,11.38,6.74v-3.77C145.3,383.29,143.19,380.87,140.77,378.09Z"/><path class="cls-1" d="M269,378.09c-2.77-3.17-5.9-6.77-12.1-6.77s-9.33,3.6-12.1,6.77c-2.56,2.94-4.78,5.48-9.26,5.48s-6.7-2.54-9.26-5.48c-2.77-3.17-5.9-6.77-12.1-6.77s-9.33,3.6-12.1,6.77c-2.56,2.94-4.78,5.48-9.26,5.48s-6.7-2.54-9.26-5.48c-2.77-3.17-5.9-6.77-12.1-6.77s-9.33,3.6-12.1,6.77c-2.56,2.94-4.78,5.48-9.26,5.48s-6.7-2.54-9.26-5.48c-2.77-3.17-5.9-6.77-12.1-6.77a1.86,1.86,0,0,0-.5.08V375a1.86,1.86,0,0,0,.5.08c4.48,0,6.7,2.54,9.26,5.48,2.77,3.17,5.9,6.77,12.1,6.77s9.33-3.6,12.1-6.77c2.56-2.94,4.78-5.48,9.26-5.48s6.7,2.54,9.26,5.48c2.77,3.17,5.9,6.77,12.1,6.77s9.33-3.6,12.1-6.77c2.56-2.94,4.78-5.48,9.26-5.48s6.7,2.54,9.26,5.48c2.77,3.17,5.9,6.77,12.1,6.77s9.33-3.6,12.1-6.77c2.56-2.94,4.78-5.48,9.26-5.48s6.7,2.54,9.26,5.48,5.66,6.47,11.38,6.74v-3.77C273.56,383.29,271.44,380.87,269,378.09Z"/></g></g></svg>